<svg width="24" height="24" viewBox="0 0 24 24" fill="none" xmlns="http://www.w3.org/2000/svg">
<path d="M6.57967 19C5.36019 19.004 4.18897 18.5272 3.32315 17.6743C2.44416 16.7468 1.96922 15.5123 2.00155 14.2391C2.03386 12.9657 2.57083 11.7566 3.49576 10.8743L7.82244 6.54285C8.76289 5.57867 10.0497 5.02389 11.4011 5C12.0081 5.00402 12.6085 5.12726 13.1674 5.36263C13.7263 5.598 14.2327 5.94084 14.6577 6.37143C15.5487 7.30433 16.0308 8.55002 15.9985 9.83542C15.966 11.1208 15.4219 12.341 14.4851 13.2286L13.0352 14.6686C12.9561 14.7528 12.8608 14.8203 12.755 14.8672C12.6491 14.914 12.5348 14.9392 12.419 14.9412C12.3031 14.9433 12.188 14.922 12.0805 14.879C11.973 14.8359 11.8755 14.7718 11.7935 14.6903C11.7115 14.6089 11.6469 14.512 11.6036 14.4052C11.5602 14.2985 11.5388 14.1842 11.5408 14.0691C11.5429 13.954 11.5682 13.8406 11.6154 13.7354C11.6626 13.6303 11.7306 13.5356 11.8154 13.4571L13.2193 11.9714C13.8231 11.4087 14.1787 10.6319 14.2089 9.81005C14.239 8.98822 13.9413 8.1878 13.3804 7.58285C12.7672 7.05177 11.9727 6.77368 11.1597 6.80555C10.3467 6.83741 9.57682 7.17684 9.00767 7.75428L4.71552 12.0743C4.12304 12.6356 3.77374 13.404 3.74153 14.2167C3.70931 15.0294 3.99671 15.8226 4.54291 16.4286C4.8431 16.7232 5.20489 16.9487 5.60262 17.0889C6.00036 17.2291 6.42428 17.2807 6.84433 17.24C6.95625 17.229 7.06925 17.2401 7.17682 17.2727C7.28439 17.3052 7.3844 17.3587 7.47106 17.4299C7.55772 17.5011 7.62932 17.5887 7.68173 17.6874C7.73413 17.7863 7.76632 17.8945 7.77641 18.0057C7.79891 18.2314 7.73041 18.4568 7.58589 18.6324C7.44137 18.8081 7.23264 18.9197 7.00543 18.9428L6.57967 19Z" fill="black"/>
<path d="M12.5988 19C11.9918 18.996 11.3915 18.8725 10.8326 18.6365C10.2737 18.4007 9.76724 18.057 9.34228 17.6254C8.45132 16.6902 7.96917 15.4416 8.00153 14.1532C8.03388 12.8648 8.57811 11.6417 9.51488 10.7521L10.9648 9.30873C11.0438 9.22433 11.1391 9.15662 11.245 9.10966C11.3509 9.06271 11.4651 9.03746 11.581 9.03542C11.6969 9.03339 11.8119 9.05461 11.9194 9.09782C12.0269 9.14103 12.1245 9.20535 12.2064 9.28694C12.2885 9.36851 12.353 9.4657 12.3964 9.57268C12.4398 9.67965 12.4612 9.79424 12.4591 9.90957C12.457 10.0249 12.4317 10.1387 12.3845 10.2441C12.3374 10.3495 12.2694 10.4443 12.1846 10.523L10.7807 12.0122C10.1769 12.5763 9.82121 13.3549 9.79106 14.1787C9.76091 15.0024 10.0587 15.8047 10.6196 16.4111C11.2328 16.9434 12.0272 17.2221 12.8402 17.1902C13.6532 17.1583 14.4232 16.8181 14.9923 16.2392L19.3305 11.9091C19.9166 11.3402 20.2574 10.5669 20.281 9.75237C20.3047 8.93788 20.0092 8.14616 19.4571 7.5446C19.1569 7.24928 18.7951 7.02333 18.3974 6.88276C17.9996 6.7422 17.5757 6.69049 17.1557 6.73127C17.0437 6.74231 16.9307 6.73118 16.8232 6.69851C16.7156 6.66583 16.6156 6.61227 16.529 6.5409C16.4423 6.46955 16.3706 6.3818 16.3183 6.28275C16.2658 6.18369 16.2337 6.07528 16.2236 5.96376C16.201 5.73749 16.2696 5.51158 16.4141 5.3355C16.5587 5.15943 16.7673 5.04757 16.9946 5.02442C17.6644 4.95531 18.3414 5.03334 18.9776 5.25305C19.6138 5.47276 20.1939 5.82877 20.6768 6.29596C21.5559 7.2256 22.0308 8.46301 21.9985 9.73929C21.9661 11.0156 21.4292 12.2276 20.5042 13.1119L16.1775 17.4535C15.2371 18.42 13.9502 18.9761 12.5988 19Z" fill="black"/>
</svg>
