<svg width="47" height="46" viewBox="0 0 47 46" fill="none" xmlns="http://www.w3.org/2000/svg">
<path d="M3.38001 24.26C3.33115 24.3087 3.29828 24.3712 3.28578 24.4391C3.27328 24.507 3.28173 24.577 3.31001 24.64C3.33189 24.7132 3.36208 24.7837 3.40001 24.85C3.68001 25.47 3.97001 26.09 4.26001 26.71L4.97001 28.24C4.97001 28.32 5.05001 28.38 5.14001 28.37L7.14001 26C7.20764 25.9292 7.2509 25.8386 7.26349 25.7415C7.27608 25.6443 7.25734 25.5457 7.21001 25.46C7.15001 25.32 7.08001 25.19 7.02001 25.05L5.55001 22C5.55001 22 5.55001 21.94 5.47001 21.87L5.15001 22.24L3.38001 24.26ZM7.77001 15L5.02001 17C4.92095 17.0496 4.84487 17.1355 4.80761 17.2399C4.77035 17.3442 4.77479 17.4589 4.82001 17.56C5.06001 18.56 5.29001 19.56 5.53001 20.48C5.53001 20.57 5.53001 20.67 5.61001 20.76C5.69001 20.85 5.70001 20.93 5.82001 20.84L8.63001 18.45C8.72585 18.3823 8.79651 18.2846 8.83089 18.1724C8.86528 18.0602 8.86145 17.9398 8.82001 17.83C8.62001 17.13 8.44001 16.43 8.24001 15.72L8.00001 14.88C7.90001 14.83 7.84001 14.91 7.77001 15ZM12.44 12.43C12.29 12.5 12.15 12.58 12.01 12.66L8.74001 14.35C8.69503 14.3666 8.65382 14.3921 8.61881 14.4248C8.5838 14.4576 8.55569 14.497 8.53612 14.5408C8.51656 14.5846 8.50594 14.6318 8.50489 14.6798C8.50384 14.7277 8.51238 14.7754 8.53001 14.82L9.10001 16.82C9.18001 17.1 9.25001 17.37 9.33001 17.64C9.41001 17.91 9.46001 17.81 9.59001 17.73L9.88001 17.55C10.54 17.11 11.2 16.67 11.88 16.24L13.26 15.33C13.3198 15.2936 13.3718 15.2457 13.413 15.189C13.4542 15.1324 13.4838 15.0681 13.5 15C13.5033 14.9634 13.5033 14.9266 13.5 14.89C13.26 14.12 13.02 13.34 12.77 12.57C12.7 12.35 12.6 12.31 12.44 12.39V12.43ZM12.36 9.29999C12.28 9.21999 12.2 9.29999 12.12 9.29999L8.57001 10.76C8.46213 10.7946 8.37084 10.8679 8.31364 10.9657C8.25643 11.0635 8.23734 11.179 8.26001 11.29C8.26001 11.64 8.26001 12 8.26001 12.35C8.26001 12.7 8.26001 13.35 8.31001 13.78C8.31757 13.8466 8.33795 13.9111 8.37001 13.97L8.62001 13.84L10.96 12.6L12.23 11.91C12.3157 11.8755 12.3876 11.8136 12.4346 11.7341C12.4816 11.6545 12.5011 11.5617 12.49 11.47L12.5 10.78L12.36 9.29999ZM7.42001 31.76C7.61001 32.02 7.79001 32.28 7.99001 32.54C8.19001 32.8 8.21001 32.7 8.33001 32.54L10.27 30.11C10.3008 30.0771 10.3226 30.0368 10.3331 29.9929C10.3436 29.9491 10.3425 29.9033 10.33 29.86C10.3115 29.7746 10.2776 29.6933 10.23 29.62L9.85001 29.11L7.79001 26.35C7.68001 26.21 7.63001 26.21 7.51001 26.35L5.50001 28.73C5.4605 28.7899 5.42701 28.8535 5.40001 28.92C5.43317 29.0114 5.47679 29.0986 5.53001 29.18L7.42001 31.76ZM17.89 10.32L17.68 10.38L14.5 11.56L13.5 11.93C13.4556 11.941 13.414 11.9614 13.3781 11.9899C13.3422 12.0183 13.3129 12.0541 13.292 12.0949C13.2712 12.1356 13.2593 12.1804 13.2572 12.2261C13.2552 12.2719 13.2629 12.3175 13.28 12.36L13.64 13.5C13.76 13.87 13.89 14.24 14 14.61C14 14.7 14.08 14.76 14.17 14.75C14.2292 14.764 14.2908 14.764 14.35 14.75L15.11 14.35L18.5 12.58L18.66 12.48C18.7146 12.4469 18.7563 12.3962 18.7782 12.3361C18.8 12.2761 18.8006 12.2104 18.78 12.15L18.18 10.5C18.1 10.37 18.04 10.33 17.89 10.32ZM24.89 38.54L27.89 39.18L28.49 39.31C28.5594 39.3052 28.6263 39.2824 28.6842 39.2438C28.7421 39.2052 28.7889 39.1522 28.82 39.09L30.06 36.48C30.2 36.19 30.33 35.9 30.47 35.62C30.61 35.34 30.47 35.38 30.33 35.34H30.28L27.05 34.58C26.9452 34.5368 26.8276 34.5367 26.7227 34.5797C26.6178 34.6228 26.5342 34.7056 26.49 34.81L25.05 37.37L24.57 38.23C24.49 38.38 24.57 38.46 24.69 38.5L24.89 38.54ZM24.09 38L25.33 35.8C25.56 35.39 25.79 34.98 26.01 34.56C26.0349 34.5308 26.0521 34.4959 26.0601 34.4583C26.0681 34.4208 26.0665 34.3819 26.0556 34.3451C26.0446 34.3083 26.0247 34.2749 25.9975 34.2478C25.9703 34.2207 25.9368 34.2008 25.9 34.19L25.55 34L22.55 32.68L22.4 32.63C22.3283 32.6254 22.2568 32.6408 22.1933 32.6743C22.1297 32.7078 22.0767 32.7582 22.04 32.82L20.87 34.6C20.51 35.14 20.15 35.68 19.8 36.22C19.72 36.34 19.72 36.4 19.8 36.49C19.8345 36.5311 19.8794 36.5622 19.93 36.58L20.85 36.97L23.62 38.15C23.6597 38.1755 23.7044 38.1919 23.7512 38.1981C23.7979 38.2042 23.8454 38.2 23.8903 38.1857C23.9352 38.1713 23.9764 38.1472 24.0109 38.1152C24.0454 38.0831 24.0725 38.0437 24.09 38ZM17.5 40L20.5 41.25L21.33 41.59C21.3652 41.6109 21.4042 41.6244 21.4448 41.6297C21.4854 41.635 21.5266 41.6319 21.5659 41.6207C21.6053 41.6095 21.6419 41.5903 21.6735 41.5644C21.7052 41.5385 21.7312 41.5063 21.75 41.47L23.5 38.88C23.6 38.74 23.58 38.69 23.43 38.62H23.37L19.67 37H19.5C19.4415 36.9965 19.3832 37.0097 19.3318 37.038C19.2805 37.0663 19.2383 37.1086 19.21 37.16L18.8 37.71C18.31 38.37 17.8 39.02 17.34 39.71C17.3216 39.7294 17.3081 39.753 17.3005 39.7786C17.293 39.8043 17.2916 39.8314 17.2964 39.8577C17.3013 39.884 17.3123 39.9088 17.3286 39.93C17.3448 39.9513 17.3659 39.9684 17.39 39.98L17.5 40ZM8.74001 33.38L9.50001 34.1L11.2 35.69L11.85 36.31C11.92 36.37 11.99 36.45 12.09 36.44C12.19 36.43 12.2 36.44 12.26 36.36L12.47 36.09L14.2 33.83C14.2341 33.7874 14.2527 33.7345 14.2527 33.68C14.2527 33.6255 14.2341 33.5726 14.2 33.53C14.1793 33.4838 14.1486 33.4428 14.11 33.41L13.26 32.62L11.31 30.79L10.97 30.48C10.82 30.35 10.75 30.36 10.63 30.48L10.08 31.16L8.68001 33C8.65552 33.0242 8.63607 33.053 8.6228 33.0847C8.60953 33.1165 8.6027 33.1506 8.6027 33.185C8.6027 33.2194 8.60953 33.2535 8.6228 33.2852C8.63607 33.317 8.65552 33.3458 8.68001 33.37L8.74001 33.38ZM12.74 37.05L15.34 38.74L16.34 39.38C16.3784 39.4128 16.4229 39.4377 16.4709 39.4532C16.519 39.4686 16.5697 39.4743 16.62 39.47C16.7 39.47 16.75 39.47 16.8 39.37L17.23 38.79C17.71 38.13 18.23 37.46 18.68 36.79C18.7021 36.7661 18.7183 36.7374 18.7273 36.7062C18.7364 36.6749 18.7381 36.642 18.7323 36.61C18.7265 36.578 18.7133 36.5478 18.6938 36.5218C18.6743 36.4958 18.6491 36.4746 18.62 36.46H18.55L15.07 34.19C15.019 34.1504 14.9614 34.12 14.9 34.1C14.8746 34.084 14.8463 34.0734 14.8167 34.0688C14.787 34.0641 14.7568 34.0656 14.7277 34.0731C14.6987 34.0806 14.6715 34.0939 14.6478 34.1123C14.6241 34.1307 14.6045 34.1537 14.59 34.18L14.49 34.32L12.64 36.71C12.6083 36.7419 12.5904 36.785 12.5904 36.83C12.5904 36.875 12.6083 36.9181 12.64 36.95C12.6801 36.9962 12.7319 37.0308 12.79 37.05H12.74ZM24.27 4.65999C24.21 4.81999 24.15 4.98999 24.09 5.16999C24.2 5.30999 24.35 5.28999 24.48 5.30999L26.73 5.70999L28.89 6.08999C28.9395 6.10024 28.9905 6.10024 29.04 6.08999C29.14 6.08999 29.15 5.99999 29.09 5.91999C29.0241 5.83377 28.9273 5.77643 28.82 5.75999L25.5 4.74999L24.59 4.47999C24.5572 4.4694 24.5225 4.46571 24.4882 4.46916C24.4539 4.4726 24.4207 4.48311 24.3906 4.50001C24.3606 4.51692 24.3344 4.53986 24.3136 4.56739C24.2928 4.59492 24.278 4.62645 24.27 4.65999ZM29.9 5.65999C29.99 5.80999 30.14 5.82999 30.27 5.89999C30.4 5.96999 30.54 6.03999 30.68 6.10999L31.06 6.28999C30.77 6.06999 30.47 5.86999 30.17 5.66999C30.1307 5.64389 30.0865 5.626 30.0401 5.61741C29.9937 5.60882 29.9461 5.6097 29.9 5.61999V5.65999ZM29.74 4.65999L27.79 3.55999L26.38 2.76999C26.3226 2.74099 26.2593 2.72588 26.195 2.72588C26.1307 2.72588 26.0674 2.74099 26.01 2.76999C25.813 2.86647 25.6311 2.99111 25.47 3.13999L25.62 3.19999L28.28 4.33999L29.58 4.88999C29.6308 4.91713 29.6874 4.93133 29.745 4.93133C29.8026 4.93133 29.8592 4.91713 29.91 4.88999C29.9 4.71999 29.82 4.68999 29.74 4.64999V4.65999ZM30.6 5.23999C30.5142 5.18456 30.4108 5.16316 30.31 5.17999C30.6164 5.444 30.9519 5.67215 31.31 5.85999L30.64 5.29999C30.64 5.29999 30.63 5.23999 30.6 5.22999V5.23999ZM24.99 3.51999C24.86 3.66999 24.74 3.82999 24.6 4.00999L24.78 4.07999L27.1 4.77999L29.1 5.37999C29.21 5.37999 29.32 5.44999 29.43 5.37999C29.54 5.30999 29.34 5.20999 29.24 5.16999L26.34 3.89999L25.34 3.48999C25.23 3.43999 25.09 3.40999 24.99 3.51999ZM30.83 4.85999C31.17 5.15999 31.49 5.40999 31.83 5.65999L31.2 4.99999C31.1535 4.94939 31.0959 4.91038 31.0316 4.88607C30.9674 4.86176 30.8983 4.85283 30.83 4.85999ZM23.59 4.25999H23.21L22.27 4.14999L20.74 3.95999L19.44 3.78999C19.3571 3.77735 19.2724 3.79322 19.1998 3.83501C19.1271 3.87679 19.0708 3.94201 19.04 4.01999L18.65 4.91999C18.6199 4.98523 18.5932 5.05198 18.57 5.11999H18.9H21.55H22.55C22.81 5.11999 23.06 5.11999 23.31 5.11999C23.3634 5.13198 23.4192 5.12684 23.4694 5.1053C23.5197 5.08375 23.5619 5.0469 23.59 4.99999C23.66 4.82999 23.72 4.64999 23.79 4.46999C23.801 4.44058 23.801 4.40816 23.79 4.37875C23.779 4.34934 23.7577 4.32491 23.73 4.30999L23.59 4.25999ZM19.68 9.30999L22.16 8.73999L23.34 8.45999C23.3795 8.45737 23.4179 8.44576 23.4522 8.42605C23.4866 8.40634 23.516 8.37904 23.5382 8.34624C23.5603 8.31345 23.5747 8.27601 23.5803 8.2368C23.5858 8.19759 23.5823 8.15764 23.57 8.11999C23.57 7.89999 23.48 7.67999 23.44 7.45999C23.4277 7.3793 23.384 7.30674 23.3184 7.25807C23.2529 7.20939 23.1708 7.18852 23.09 7.19999L21.91 7.31999L20.64 7.43999L18.89 7.60999H18.53C18.32 7.60999 18.22 7.73999 18.25 7.94999L18.43 9.29999C18.43 9.45999 18.5 9.49999 18.68 9.49999H18.79L19.68 9.30999ZM18.39 5.74999C18.34 6.12999 18.29 6.49999 18.25 6.87999C18.21 7.25999 18.25 7.20999 18.56 7.17999L20.11 6.99999L21.35 6.87999L22.72 6.73999L23.19 6.67999C23.2362 6.67556 23.2795 6.65517 23.3123 6.62233C23.3452 6.58948 23.3656 6.54623 23.37 6.49999C23.37 6.27999 23.37 6.04999 23.37 5.82999C23.3728 5.80292 23.37 5.77557 23.3618 5.74962C23.3536 5.72367 23.3402 5.69966 23.3224 5.67907C23.3046 5.65847 23.2828 5.64173 23.2583 5.62985C23.2338 5.61797 23.2072 5.61122 23.18 5.60999H22.75H20.95H18.88H18.62C18.5728 5.61116 18.5267 5.62471 18.4863 5.64928C18.446 5.67384 18.4127 5.70857 18.39 5.74999ZM23.39 8.95999L22 9.27999L19.53 9.85999L18.84 10.02C18.8037 10.0284 18.7696 10.0448 18.7404 10.0681C18.7113 10.0913 18.6877 10.1208 18.6714 10.1544C18.6551 10.1879 18.6465 10.2247 18.6462 10.262C18.646 10.2993 18.6541 10.3362 18.67 10.37L19.21 11.86C19.26 12.01 19.32 12.06 19.51 12.06H19.65L21.14 11.47L23.99 10.35C24.2 10.26 24.24 10.16 24.16 9.95999L23.86 9.23999C23.8489 9.19306 23.8279 9.14903 23.7984 9.11082C23.769 9.07262 23.7317 9.04113 23.6892 9.01842C23.6466 8.99572 23.5997 8.98234 23.5516 8.97916C23.5034 8.97599 23.4552 8.98309 23.41 8.99999L23.39 8.95999ZM23.94 5.86999C23.94 6.07999 23.94 6.28999 23.94 6.49999C23.9336 6.5291 23.9382 6.55955 23.953 6.58543C23.9678 6.61131 23.9917 6.63076 24.02 6.63999C24.0771 6.6658 24.1378 6.68267 24.2 6.68999H24.76L26.28 6.75999H27.28L28.66 6.81999H28.88C29.03 6.81999 29.08 6.66999 28.98 6.56999C28.9155 6.50794 28.8364 6.46322 28.75 6.43999L26.85 6.09999L24.38 5.65999C24.3279 5.63771 24.2717 5.62623 24.215 5.62623C24.1583 5.62623 24.1022 5.63771 24.05 5.65999C24.0267 5.66216 24.0044 5.67057 23.9855 5.68434C23.9666 5.69811 23.9518 5.71672 23.9426 5.73823C23.9333 5.75973 23.9301 5.78332 23.9332 5.80651C23.9362 5.8297 23.9455 5.85163 23.96 5.86999H23.94ZM32.79 39.43C32.8941 39.4461 33.0005 39.4234 33.0889 39.3662C33.1774 39.3091 33.2419 39.2215 33.27 39.12C33.45 38.66 33.64 38.21 33.82 37.75L34.61 35.75C34.68 35.58 34.61 35.53 34.46 35.53H33.67H32.53H31.41H31.33C31.2278 35.5517 31.1332 35.6002 31.0559 35.6705C30.9786 35.7408 30.9214 35.8303 30.89 35.93C30.6 36.56 30.29 37.18 30 37.81L29.25 39.36C29.2758 39.3953 29.3112 39.4225 29.3519 39.4385C29.3926 39.4544 29.4371 39.4584 29.48 39.45L32.79 39.43ZM41.66 10.93C41.6369 10.8607 41.6003 10.7968 41.5522 10.7418C41.5041 10.6869 41.4456 10.6421 41.38 10.61L39.15 9.54999L39 9.49999C39.0102 9.57682 39.038 9.65024 39.0814 9.71445C39.1248 9.77866 39.1825 9.83191 39.25 9.86999L41.78 11.52L41.9 11.59C41.903 11.5567 41.903 11.5233 41.9 11.49L41.66 10.93ZM42.53 22.17C42.5942 22.1259 42.6419 22.0616 42.6654 21.9873C42.689 21.9131 42.6871 21.8331 42.66 21.76C42.6641 21.7168 42.6641 21.6732 42.66 21.63C42.16 20.37 41.66 19.12 41.15 17.86C41.1333 17.8053 41.1062 17.7543 41.07 17.71C41 17.62 40.96 17.61 40.85 17.71L40.48 17.95C40.4387 17.9662 40.4012 17.9908 40.3699 18.0222C40.3386 18.0536 40.3142 18.0912 40.2983 18.1326C40.2823 18.174 40.2751 18.2182 40.2771 18.2625C40.2791 18.3068 40.2903 18.3502 40.31 18.39C40.39 18.66 40.46 18.93 40.54 19.2C40.86 20.36 41.19 21.52 41.54 22.68L41.63 22.92C41.6802 22.8958 41.7272 22.8656 41.77 22.83L42.53 22.17ZM43.07 21.63L43.2 21.45L43.7 20.75C43.7584 20.6721 43.79 20.5774 43.79 20.48C43.79 20.3826 43.7584 20.2879 43.7 20.21L42.5 17.72L42.02 16.79C42.02 16.72 41.96 16.65 41.85 16.64C41.74 16.63 41.65 16.91 41.54 17.03C41.478 17.0937 41.4377 17.1755 41.4252 17.2636C41.4126 17.3516 41.4283 17.4414 41.47 17.52L42.78 20.82L43.07 21.63ZM40.64 13.47C40.45 13.27 40.26 13.06 40.06 12.86C39.86 12.66 39.43 12.22 39.12 11.86C39.0996 11.8302 39.0692 11.8087 39.0343 11.7996C38.9994 11.7904 38.9624 11.7941 38.93 11.81C38.9219 11.8659 38.9267 11.9229 38.9441 11.9766C38.9614 12.0303 38.9908 12.0794 39.03 12.12C39.92 13.27 40.82 14.42 41.71 15.58L41.77 15.67C41.849 15.5107 41.9191 15.3471 41.98 15.18C42.0165 15.1014 42.0265 15.0131 42.0084 14.9283C41.9904 14.8435 41.9453 14.7669 41.88 14.71C41.5 14.32 41.07 13.9 40.66 13.47H40.64ZM39.64 28.97C39.635 29.0165 39.635 29.0635 39.64 29.11C39.6324 29.1563 39.6324 29.2036 39.64 29.25H39.75L41.5 28.45C41.5719 28.4214 41.6318 28.3692 41.67 28.3019C41.7082 28.2346 41.7223 28.1564 41.71 28.08C41.66 27.55 41.6 27.02 41.54 26.49C41.48 25.96 41.41 25.29 41.34 24.69L41.25 23.92C41.2497 23.8752 41.2363 23.8314 41.2114 23.7941C41.1865 23.7568 41.1513 23.7275 41.11 23.71L39.88 24.18C39.7855 24.2016 39.7024 24.2576 39.647 24.3371C39.5915 24.4166 39.5676 24.5139 39.58 24.61C39.58 25.14 39.58 25.68 39.58 26.21C39.64 27.13 39.64 28.05 39.65 29L39.64 28.97ZM39.64 23.71L40.95 23.22C40.95 23.22 41.04 23.15 41.06 23.1C41.0867 23.0437 41.1005 22.9823 41.1005 22.92C41.1005 22.8577 41.0867 22.7962 41.06 22.74L40.06 19.22C40 18.99 39.94 18.77 39.87 18.54C39.8674 18.5037 39.8559 18.4686 39.8364 18.4379C39.8169 18.4072 39.7901 18.3818 39.7584 18.3639C39.7267 18.3461 39.6911 18.3364 39.6547 18.3357C39.6183 18.335 39.5824 18.3434 39.55 18.36L38.97 18.53C38.9224 18.5411 38.8798 18.5678 38.849 18.6058C38.8182 18.6439 38.801 18.6911 38.8 18.74C38.7901 18.8029 38.7901 18.8671 38.8 18.93C38.89 19.55 38.99 20.17 39.09 20.78L39.5 23.49C39.4997 23.5363 39.5127 23.5816 39.5375 23.6207C39.5624 23.6597 39.5979 23.6907 39.64 23.71ZM40.64 9.15999L39.43 8.82999L38.67 8.61999C38.6884 8.70701 38.727 8.78851 38.7825 8.85797C38.8381 8.92742 38.9092 8.98291 38.99 9.01999L41.24 10.09H41.36L40.92 9.30999C40.8838 9.26477 40.8383 9.22793 40.7865 9.20203C40.7347 9.17613 40.6779 9.16179 40.62 9.15999H40.64ZM36.27 13.45C36.27 13.45 36.27 13.52 36.27 13.55C36.36 14.17 36.46 14.8 36.55 15.42C36.68 16.25 36.8 17.07 36.93 17.89C36.9291 17.9363 36.9386 17.9822 36.9578 18.0243C36.977 18.0665 37.0054 18.1038 37.0409 18.1335C37.0764 18.1632 37.118 18.1846 37.1629 18.1961C37.2077 18.2076 37.2546 18.209 37.3 18.2H37.92C37.9499 18.2019 37.9796 18.1943 38.0048 18.1781C38.03 18.1619 38.0494 18.138 38.06 18.11C38.0771 18.0723 38.086 18.0314 38.086 17.99C38.086 17.9486 38.0771 17.9077 38.06 17.87C37.74 16.82 37.42 15.77 37.06 14.71L36.72 13.59C36.7066 13.5312 36.681 13.4759 36.6448 13.4277C36.6086 13.3794 36.5627 13.3393 36.51 13.31C36.4423 13.2847 36.3677 13.2847 36.3 13.31C36.24 13.29 36.24 13.37 36.25 13.45H36.27ZM38.43 9.92999L38.16 9.82999L37.67 9.63999L38.67 10.21C38.6499 10.1471 38.6161 10.0894 38.5712 10.041C38.5263 9.99264 38.4712 9.95473 38.41 9.92999H38.43ZM31.85 4.83999C31.805 4.79244 31.7507 4.7546 31.6905 4.7288C31.6303 4.70301 31.5655 4.6898 31.5 4.68999C31.7515 4.97776 32.0185 5.25151 32.3 5.50999C32.17 5.29999 32.04 5.10999 31.9 4.90999L31.85 4.83999ZM42.24 13.91C42.2496 13.8186 42.2353 13.7264 42.1985 13.6422C42.1617 13.5581 42.1036 13.4849 42.03 13.43L39.34 11.2L39.18 11.09C39.1595 11.1541 39.159 11.2229 39.1786 11.2872C39.1983 11.3516 39.2372 11.4084 39.29 11.45C39.73 11.92 40.19 12.39 40.64 12.85L41.9 14.17L42.19 14.45C42.21 14.24 42.22 14.07 42.24 13.91ZM41.85 12L39.27 10.33H39.17C39.1738 10.409 39.1956 10.4861 39.2338 10.5554C39.2719 10.6247 39.3253 10.6844 39.39 10.73C40.23 11.42 41.06 12.12 41.89 12.82C41.99 12.9 42.09 12.97 42.21 13.08C42.21 12.86 42.15 12.68 42.13 12.5C42.1316 12.3994 42.1066 12.3001 42.0574 12.2122C42.0082 12.1244 41.9367 12.0512 41.85 12ZM36.29 11.26V11.38C36.45 11.7 36.6 12.02 36.75 12.38C36.7703 12.4418 36.8089 12.4959 36.8607 12.5352C36.9125 12.5745 36.975 12.5971 37.04 12.6C37.0621 12.5639 37.0738 12.5223 37.0738 12.48C37.0738 12.4376 37.0621 12.3961 37.04 12.36L36.38 11.36L36.29 11.26ZM38.29 18.95C38.2824 18.8687 38.244 18.7933 38.1826 18.7394C38.1213 18.6855 38.0416 18.6571 37.96 18.66C37.7835 18.6695 37.6065 18.6695 37.43 18.66C37.3534 18.6551 37.2766 18.6551 37.2 18.66C37.05 18.66 37 18.75 36.99 18.9V19.19V19.64C36.99 20.5 36.99 21.36 37.04 22.23C37.04 22.72 37.04 23.23 37.04 23.69C37.04 23.92 37.14 23.98 37.33 23.95L38 24L38.8 23.91C38.8387 23.9106 38.877 23.9018 38.9116 23.8844C38.9462 23.867 38.976 23.8415 38.9986 23.8101C39.0212 23.7787 39.0359 23.7422 39.0413 23.7039C39.0468 23.6656 39.0429 23.6265 39.03 23.59C38.96 23.07 38.88 22.59 38.8 22.05C38.66 21.2 38.53 20.35 38.4 19.5C38.37 19.31 38.35 19.15 38.32 19L38.29 18.95ZM39.29 17.81C39.41 17.81 39.44 17.73 39.44 17.57C39.44 17.41 39.44 17.5 39.44 17.45L39.29 17.11C38.91 16.29 38.53 15.47 38.16 14.65L37.6 13.4C37.5801 13.3436 37.5484 13.2922 37.507 13.2491C37.4656 13.206 37.4155 13.1722 37.36 13.15C37.3376 13.1392 37.3127 13.1346 37.288 13.1366C37.2632 13.1386 37.2394 13.1472 37.219 13.1615C37.1987 13.1757 37.1825 13.1951 37.1721 13.2177C37.1617 13.2403 37.1576 13.2653 37.16 13.29C37.1542 13.3264 37.1542 13.3636 37.16 13.4L37.43 14.31C37.79 15.46 38.14 16.61 38.5 17.76C38.5112 17.8131 38.5315 17.8638 38.56 17.91C38.5818 17.9572 38.6212 17.994 38.6697 18.0127C38.7183 18.0314 38.7722 18.0304 38.82 18.01L39.29 17.81ZM36.13 34.81L38.13 34.42C38.2241 34.4108 38.3118 34.3686 38.3777 34.3008C38.4436 34.2331 38.4834 34.1443 38.49 34.05L38.67 32.86L39 30.6C39 30.42 39.05 30.24 39.08 30.05C39.11 29.86 39.02 29.89 38.9 29.91H38.68L36.77 30.21C36.7136 30.2157 36.6592 30.2339 36.6107 30.2633C36.5623 30.2927 36.521 30.3326 36.49 30.38C36.4305 30.4722 36.3866 30.5735 36.36 30.68C36.15 31.54 35.95 32.4 35.75 33.26C35.63 33.74 35.52 34.26 35.4 34.72C35.4 34.89 35.4 34.92 35.56 34.88L36.13 34.81ZM39.92 17.4C39.9282 17.4124 39.9394 17.4225 39.9524 17.4295C39.9655 17.4366 39.9802 17.4402 39.995 17.4402C40.0099 17.4402 40.0245 17.4366 40.0376 17.4295C40.0507 17.4225 40.0618 17.4124 40.07 17.4L40.52 17.11C40.5539 17.088 40.58 17.0559 40.5944 17.0181C40.6088 16.9803 40.6107 16.939 40.6 16.9C40.5727 16.8208 40.5393 16.7439 40.5 16.67L38.59 13.55L38.28 13C38.21 12.89 38.13 12.8 37.97 12.84C37.9437 12.8856 37.9298 12.9373 37.9298 12.99C37.9298 13.0427 37.9437 13.0944 37.97 13.14C38.17 13.57 38.36 14 38.56 14.44L39.88 17.3C39.9023 17.3648 39.94 17.4231 39.99 17.47L39.92 17.4ZM39.11 26.86V24.72C39.11 24.5 39.02 24.42 38.81 24.44L38.08 24.52L37.32 24.61C37.2684 24.6148 37.2193 24.6343 37.1786 24.6662C37.1378 24.6981 37.107 24.7411 37.09 24.79C37.0797 24.8563 37.0797 24.9237 37.09 24.99L37 25.77L36.82 27.59C36.77 28.12 36.71 28.64 36.66 29.17C36.6501 29.3232 36.6501 29.4768 36.66 29.63C36.66 29.76 36.66 29.8 36.82 29.79H36.92L38.92 29.48C38.9692 29.4805 39.0179 29.4704 39.0628 29.4503C39.1077 29.4301 39.1477 29.4005 39.18 29.3634C39.2123 29.3264 39.2362 29.2827 39.25 29.2355C39.2638 29.1883 39.2672 29.1386 39.26 29.09L39.11 26.86ZM38.5 10.63L37.81 10.25H37.73C38.0335 10.5149 38.3696 10.7401 38.73 10.92C38.6891 10.7997 38.6079 10.6972 38.5 10.63ZM41.09 16.75L41.45 16.31C41.4704 16.2769 41.4811 16.2388 41.4811 16.2C41.4811 16.1612 41.4704 16.1231 41.45 16.09C41.4134 15.9951 41.3665 15.9046 41.31 15.82L39.5 13.36C39.29 13.08 39.07 12.81 38.86 12.54C38.79 12.46 38.72 12.38 38.59 12.42C38.5784 12.4753 38.5787 12.5323 38.5907 12.5875C38.6028 12.6426 38.6264 12.6946 38.66 12.74C39.4467 14.0267 40.2333 15.3167 41.02 16.61L41.09 16.75ZM36.82 11.21L37.48 12.21C37.4973 12.2486 37.5254 12.2814 37.5609 12.3045C37.5963 12.3275 37.6377 12.3398 37.68 12.34C37.6932 12.2944 37.6936 12.2461 37.6813 12.2002C37.6689 12.1544 37.6443 12.1128 37.61 12.08L36.98 11.35L36.82 11.21ZM37.22 10.99L38.05 11.99C38.0873 12.0177 38.1275 12.0412 38.17 12.06C38.181 12.0062 38.1765 11.9504 38.157 11.8991C38.1376 11.8477 38.1039 11.803 38.06 11.77C38.0081 11.7148 37.9512 11.6646 37.89 11.62L37.23 11L37.22 10.99ZM38.54 11.5L38.41 11.27C38.3902 11.266 38.3698 11.266 38.35 11.27L37.6 10.73C37.8604 11.0492 38.1838 11.3113 38.55 11.5H38.54ZM34.94 34.75C35.2 33.68 35.45 32.62 35.7 31.55L35.91 30.64C35.9275 30.5934 35.9269 30.5419 35.9084 30.4956C35.8899 30.4494 35.8548 30.4117 35.81 30.39C35.7504 30.3805 35.6896 30.3805 35.63 30.39L34.56 30.32C34.14 30.32 33.72 30.32 33.31 30.24C33.1974 30.2288 33.0844 30.2579 32.9911 30.3219C32.8978 30.3859 32.8301 30.4809 32.8 30.59C32.46 31.59 32.11 32.59 31.8 33.64C31.68 34 31.56 34.37 31.43 34.73C31.36 34.9 31.43 35.02 31.61 35.01H32.3H33.3H34.49H34.5C34.5466 35.0235 34.5955 35.0275 34.6437 35.0216C34.6919 35.0158 34.7384 35.0003 34.7805 34.976C34.8225 34.9517 34.8592 34.9191 34.8883 34.8803C34.9175 34.8415 34.9384 34.7971 34.95 34.75H34.94ZM31.5 8.89999L30.85 8.99999C30.7217 9.01361 30.5947 9.03701 30.47 9.06999C30.37 9.06999 30.35 9.15999 30.47 9.22999C30.5107 9.28722 30.5681 9.33044 30.6344 9.35371C30.7006 9.37699 30.7725 9.37919 30.84 9.35999L31.74 9.01999C31.66 8.85999 31.57 8.87999 31.5 8.89999ZM20.34 15.74L18.5 17.05L16.5 18.48C16.4622 18.503 16.4298 18.5337 16.4048 18.5703C16.3799 18.6068 16.3631 18.6483 16.3555 18.6918C16.348 18.7354 16.3498 18.7801 16.3609 18.8229C16.372 18.8657 16.3922 18.9056 16.42 18.94L18.2 21.16C18.2269 21.2034 18.2645 21.2392 18.3091 21.2641C18.3537 21.2889 18.4039 21.302 18.455 21.302C18.5061 21.302 18.5563 21.2889 18.6009 21.2641C18.6456 21.2392 18.6831 21.2034 18.71 21.16L19.5 20.4L20.93 19L22.15 17.85C22.1898 17.8154 22.2213 17.7722 22.2421 17.7237C22.2628 17.6752 22.2724 17.6227 22.27 17.57C22.2724 17.5259 22.2656 17.4819 22.2501 17.4406C22.2346 17.3993 22.2107 17.3616 22.18 17.33C21.75 16.82 21.32 16.33 20.9 15.79C20.8702 15.745 20.8306 15.7073 20.7842 15.6797C20.7378 15.6521 20.6858 15.6352 20.632 15.6304C20.5782 15.6256 20.5241 15.633 20.4735 15.6519C20.423 15.6709 20.3774 15.701 20.34 15.74ZM25.6 12.58C25.5 12.58 25.42 12.63 25.34 12.68L22.5 14.39L21.5 15.02C21.29 15.15 21.27 15.29 21.41 15.47L22.61 17C22.6382 17.0336 22.6734 17.0607 22.7131 17.0792C22.7528 17.0978 22.7962 17.1074 22.84 17.1074C22.8839 17.1074 22.9272 17.0978 22.9669 17.0792C23.0067 17.0607 23.0418 17.0336 23.07 17L24.4 15.84L26.55 14C26.5854 13.9719 26.614 13.9362 26.6337 13.8955C26.6533 13.8548 26.6635 13.8102 26.6635 13.765C26.6635 13.7198 26.6533 13.6752 26.6337 13.6345C26.614 13.5938 26.5854 13.5581 26.55 13.53C26.33 13.27 26.1 13.01 25.88 12.74C25.849 12.6934 25.8075 12.6547 25.7589 12.6269C25.7103 12.5991 25.6559 12.5831 25.6 12.58ZM31.5 11.58C31.5421 11.5252 31.5665 11.459 31.57 11.39C31.5599 11.2882 31.5102 11.1945 31.4316 11.1291C31.353 11.0636 31.2519 11.0316 31.15 11.04C31.0937 11.0559 31.0399 11.0795 30.99 11.11L30.65 11.38L27.86 13.63C27.71 13.76 27.7 13.88 27.86 14.02L28.14 14.27L28.64 14.72C28.6662 14.7533 28.6996 14.7802 28.7377 14.7987C28.7758 14.8172 28.8176 14.8268 28.86 14.8268C28.9024 14.8268 28.9442 14.8172 28.9823 14.7987C29.0204 14.7802 29.0538 14.7533 29.08 14.72C29.2 14.55 29.34 14.39 29.47 14.22L31.5 11.58ZM32.5 11.15C32.4837 11.1735 32.4749 11.2014 32.4749 11.23C32.4749 11.2586 32.4837 11.2865 32.5 11.31C32.5173 11.3551 32.5455 11.3952 32.5822 11.4266C32.6188 11.4581 32.6628 11.4799 32.71 11.49C32.81 11.49 32.84 11.49 32.88 11.41L33.24 10.53L33.08 10.42L32.5 11.15ZM15.6 19.15C15.5296 19.1752 15.4624 19.2087 15.4 19.25C14.93 19.62 14.47 20 14.01 20.38L11.93 22.1C11.8926 22.129 11.8624 22.1661 11.8416 22.2086C11.8208 22.251 11.8099 22.2977 11.8099 22.345C11.8099 22.3923 11.8208 22.4389 11.8416 22.4814C11.8624 22.5239 11.8926 22.561 11.93 22.59L12.55 23.4L14.09 25.4C14.115 25.4351 14.148 25.4637 14.1862 25.4834C14.2245 25.5032 14.2669 25.5135 14.31 25.5135C14.3531 25.5135 14.3955 25.5032 14.4338 25.4834C14.472 25.4637 14.505 25.4351 14.53 25.4L15.08 24.83L16.63 23.24C17 22.86 17.37 22.47 17.76 22.1C17.8261 22.0236 17.8626 21.926 17.8626 21.825C17.8626 21.724 17.8261 21.6263 17.76 21.55L15.9 19.26C15.8716 19.2201 15.8341 19.1875 15.7906 19.1649C15.7472 19.1424 15.699 19.1304 15.65 19.13L15.6 19.15ZM30.09 10.24L29.23 10.67L26.5 12.06C26.31 12.15 26.29 12.27 26.42 12.43L27.02 13.13C27.0955 13.2286 27.207 13.2933 27.33 13.31L27.55 13.18L29.23 11.84L30.63 10.71C30.6593 10.6918 30.6845 10.6678 30.704 10.6395C30.7236 10.6112 30.737 10.5791 30.7436 10.5453C30.7502 10.5115 30.7497 10.4767 30.7422 10.4431C30.7347 10.4095 30.7203 10.3778 30.7 10.35C30.6724 10.304 30.6358 10.2641 30.5924 10.2325C30.5491 10.201 30.4998 10.1784 30.4476 10.1663C30.3953 10.1542 30.3412 10.1527 30.2883 10.1619C30.2355 10.1711 30.1851 10.1909 30.14 10.22L30.09 10.24ZM31 22.54C31.08 22.3 31.15 22.07 31.22 21.83L32.36 18.09C32.3641 18.0468 32.3641 18.0032 32.36 17.96C32.3623 17.8864 32.3426 17.8138 32.3034 17.7514C32.2643 17.6891 32.2073 17.6398 32.14 17.61L31.21 17.16C30.98 17.04 30.84 17.09 30.72 17.32C30.6 17.55 30.41 17.94 30.25 18.25L28.7 21.39C28.6743 21.4266 28.6574 21.4686 28.6506 21.5128C28.6438 21.557 28.6473 21.6021 28.6609 21.6447C28.6745 21.6873 28.6977 21.7262 28.7287 21.7583C28.7598 21.7905 28.7979 21.815 28.84 21.83L30.66 22.7C30.6963 22.7217 30.7374 22.7343 30.7797 22.7366C30.8219 22.7388 30.8641 22.7307 30.9026 22.713C30.941 22.6953 30.9745 22.6684 31.0002 22.6348C31.0259 22.6011 31.043 22.5617 31.05 22.52L31 22.54ZM25.79 27.2L25.96 27.27L28.5 28.39C28.5548 28.4107 28.6152 28.4107 28.67 28.39C28.7293 28.3804 28.7848 28.3549 28.8306 28.3161C28.8764 28.2774 28.9108 28.2268 28.93 28.17L30.02 25.29C30.23 24.74 30.44 24.2 30.64 23.66C30.6746 23.5775 30.6762 23.4849 30.6446 23.4012C30.6129 23.3175 30.5505 23.2491 30.47 23.21L28.59 22.32C28.5469 22.2911 28.4977 22.2725 28.4463 22.2656C28.3949 22.2586 28.3426 22.2636 28.2933 22.28C28.2441 22.2964 28.1993 22.3238 28.1623 22.3602C28.1253 22.3966 28.0972 22.441 28.08 22.49L26.87 24.66L25.75 26.66C25.7154 26.7245 25.6854 26.7913 25.66 26.86C25.69 27 25.72 27.13 25.84 27.18L25.79 27.2ZM21.7 24.1C21.82 23.96 21.92 23.82 22.03 23.68L24.71 20.23C24.7719 20.1634 24.8062 20.0759 24.8062 19.985C24.8062 19.8941 24.7719 19.8066 24.71 19.74L23.09 18.29C23.0585 18.2524 23.0185 18.2228 22.9733 18.2037C22.9281 18.1846 22.879 18.1764 22.83 18.18C22.7849 18.176 22.7395 18.183 22.6977 18.2004C22.6559 18.2179 22.6189 18.2452 22.59 18.28L20.7 20C20.43 20.25 20.16 20.5 19.9 20.76L19.01 21.6C18.9744 21.6291 18.9458 21.6657 18.9261 21.7072C18.9064 21.7487 18.8962 21.7941 18.8962 21.84C18.8962 21.8859 18.9064 21.9313 18.9261 21.9728C18.9458 22.0143 18.9744 22.0509 19.01 22.08L19.48 22.49L21.23 24.1C21.2569 24.1372 21.2922 24.1674 21.3331 24.1883C21.3739 24.2092 21.4191 24.2201 21.465 24.2201C21.5109 24.2201 21.5561 24.2092 21.597 24.1883C21.6378 24.1674 21.6731 24.1372 21.7 24.1ZM16.03 27.36L17.59 28.8C17.78 28.98 17.93 28.97 18.09 28.8L20.93 25.13C20.9633 25.0974 20.9897 25.0585 21.0077 25.0156C21.0258 24.9727 21.0351 24.9266 21.0351 24.88C21.0351 24.8334 21.0258 24.7873 21.0077 24.7444C20.9897 24.7015 20.9633 24.6626 20.93 24.63L19.86 23.63L18.6 22.5C18.5336 22.4484 18.4593 22.4079 18.38 22.38C18.3315 22.3825 18.284 22.3955 18.2409 22.4179C18.1978 22.4403 18.16 22.4717 18.13 22.51L17.42 23.23L14.92 25.77L14.84 25.86C14.8097 25.8881 14.7856 25.9221 14.769 25.96C14.7525 25.9978 14.744 26.0387 14.744 26.08C14.744 26.1213 14.7525 26.1622 14.769 26.2C14.7856 26.2379 14.8097 26.2719 14.84 26.3L16.03 27.36ZM22.27 24.92L24.77 26.58C24.8055 26.6065 24.8464 26.6249 24.8897 26.6337C24.9331 26.6426 24.978 26.6417 25.021 26.6312C25.064 26.6207 25.1041 26.6008 25.1386 26.5729C25.173 26.545 25.2008 26.5099 25.22 26.47L25.57 25.85C26.24 24.65 26.91 23.44 27.57 22.24C27.5978 22.1716 27.6212 22.1014 27.64 22.03C27.6381 21.9686 27.6217 21.9085 27.5922 21.8546C27.5626 21.8008 27.5208 21.7546 27.47 21.72L25.64 20.51C25.6031 20.4805 25.5603 20.4593 25.5145 20.4478C25.4687 20.4363 25.4209 20.4348 25.3745 20.4433C25.328 20.4518 25.284 20.4702 25.2452 20.4973C25.2065 20.5243 25.174 20.5593 25.15 20.6C24.85 20.97 24.56 21.35 24.27 21.73L22.17 24.43C22.135 24.4651 22.1093 24.5082 22.0951 24.5557C22.0808 24.6031 22.0786 24.6533 22.0885 24.7018C22.0984 24.7504 22.1201 24.7957 22.1518 24.8337C22.1835 24.8718 22.2241 24.9014 22.27 24.92ZM26.04 20.06L27.76 21.21C27.7919 21.2411 27.8313 21.2635 27.8744 21.275C27.9174 21.2865 27.9627 21.2867 28.0059 21.2756C28.049 21.2646 28.0887 21.2426 28.1209 21.2119C28.1531 21.1811 28.1769 21.1426 28.19 21.1L29.19 19.1L30.25 17.1C30.2739 17.0482 30.294 16.9947 30.31 16.94C30.3177 16.8701 30.3059 16.7995 30.2759 16.7359C30.2459 16.6724 30.1989 16.6184 30.14 16.58L29.23 15.97C29.1877 15.9388 29.1403 15.9152 29.09 15.9C29.0264 15.8813 28.9586 15.8828 28.8959 15.9043C28.8332 15.9258 28.7787 15.9662 28.74 16.02L27.95 17L25.95 19.55C25.907 19.5821 25.8738 19.6256 25.854 19.6755C25.8342 19.7254 25.8287 19.7798 25.838 19.8327C25.8473 19.8856 25.8712 19.9348 25.9068 19.9749C25.9425 20.0151 25.9886 20.0445 26.04 20.06ZM32.56 12.2C32.561 12.1151 32.5368 12.0318 32.4906 11.9606C32.4443 11.8894 32.378 11.8336 32.3 11.8C32.2302 11.7759 32.1543 11.7767 32.085 11.8022C32.0158 11.8277 31.9575 11.8764 31.92 11.94L29.5 15C29.4681 15.0302 29.4441 15.0677 29.43 15.1092C29.4159 15.1507 29.4121 15.1951 29.419 15.2384C29.4259 15.2818 29.4433 15.3228 29.4696 15.3579C29.4959 15.393 29.5304 15.4212 29.57 15.44L30.5 16C30.69 16.13 30.8 16.09 30.89 15.89L32.5 12.32C32.5265 12.2836 32.5467 12.243 32.56 12.2ZM34.12 13.08C33.82 14.42 33.53 15.75 33.24 17.08C33.2261 17.122 33.2209 17.1664 33.2245 17.2104C33.2281 17.2545 33.2405 17.2974 33.261 17.3366C33.2816 17.3758 33.3097 17.4104 33.3439 17.4385C33.3781 17.4666 33.4176 17.4875 33.46 17.5L34.35 17.78C34.3767 17.7963 34.4076 17.8045 34.4389 17.8035C34.4702 17.8024 34.5005 17.7922 34.526 17.7741C34.5516 17.756 34.5713 17.7308 34.5826 17.7016C34.594 17.6725 34.5966 17.6406 34.59 17.61C34.59 17.48 34.59 17.36 34.59 17.23C34.59 16.83 34.59 16.44 34.59 16.04C34.59 15.2 34.59 14.36 34.66 13.51V13.25C34.6649 13.1829 34.6528 13.1157 34.6249 13.0545C34.5969 12.9933 34.554 12.9402 34.5 12.9C34.4682 12.8653 34.4262 12.8417 34.3801 12.8327C34.3339 12.8236 34.2861 12.8296 34.2436 12.8497C34.2011 12.8699 34.1661 12.9031 34.1439 12.9445C34.1217 12.986 34.1133 13.0334 34.12 13.08ZM45.12 16.75C45.28 17.21 45.48 17.67 45.66 18.13C45.6759 18.1719 45.696 18.2121 45.72 18.25C45.7303 18.1536 45.7303 18.0564 45.72 17.96C45.6766 17.6179 45.5927 17.2822 45.47 16.96C45.38 16.78 45.31 16.6 45.23 16.42L44.99 15.88C44.9852 15.9466 44.9852 16.0134 44.99 16.08C45.001 16.3055 45.0312 16.5296 45.08 16.75H45.12ZM34.43 23.53C34.4229 23.5702 34.4241 23.6114 34.4335 23.6511C34.4429 23.6908 34.4603 23.7282 34.4846 23.761C34.509 23.7938 34.5397 23.8212 34.575 23.8417C34.6104 23.8621 34.6495 23.8752 34.69 23.88L35.5 24C35.77 24 36.05 24.05 36.32 24.09C36.59 24.13 36.65 24.03 36.65 23.81C36.65 23.59 36.65 23.49 36.65 23.33C36.65 23.1 36.65 22.88 36.65 22.65C36.65 22.01 36.65 21.37 36.65 20.74C36.65 20.41 36.65 20.08 36.65 19.74C36.65 19.4 36.65 19.3 36.65 19.08C36.6479 18.9939 36.614 18.9116 36.555 18.8488C36.4959 18.7861 36.4158 18.7474 36.33 18.74L35.51 18.63C35.29 18.63 35.21 18.63 35.18 18.89C35.15 19.15 35.11 19.34 35.09 19.57C34.98 20.36 34.88 21.16 34.78 21.95L34.43 23.53ZM45.04 17.53C45.04 17.61 45.04 17.68 45.04 17.76C45.04 17.84 45.04 18.22 45.04 18.44C45.0144 18.5687 45.0144 18.7013 45.04 18.83L45.88 21.29C45.8924 21.3317 45.9091 21.3719 45.93 21.41C45.93 20.95 45.93 20.51 46 20.06C46.0035 19.9094 45.9762 19.7597 45.92 19.62C45.7 19.08 45.49 18.54 45.28 18C45.17 17.85 45.1 17.69 45.04 17.54V17.53ZM34.61 12.4C34.7 12.4 34.67 12.27 34.61 12.2C34.61 11.85 34.54 11.5 34.5 11.2L34.37 11.14V11.29C34.37 11.54 34.37 11.79 34.28 12.04C34.2677 12.0983 34.2715 12.1588 34.2909 12.2152C34.3102 12.2715 34.3445 12.3216 34.39 12.36C34.5 12.37 34.5 12.43 34.61 12.4ZM34.99 5.76999C35.05 5.55999 34.93 5.41999 34.7 5.43999C34.7 5.61999 34.7 5.80999 34.7 5.99999C34.6962 6.04707 34.7092 6.09399 34.7366 6.13242C34.7641 6.17086 34.8042 6.19834 34.85 6.20999C34.9 6.05999 34.95 5.90999 34.99 5.76999ZM29.87 6.99999L30.38 7.09999L31.03 7.22999L29.8 6.79999C29.7658 6.77762 29.7259 6.76571 29.685 6.76571C29.6442 6.76571 29.6042 6.77762 29.57 6.79999C29.5972 6.85741 29.6394 6.90636 29.6923 6.9416C29.7451 6.97683 29.8066 6.99702 29.87 6.99999ZM29.87 6.30999L30.87 6.66999H30.97C30.61 6.46999 30.25 6.28999 29.88 6.11999C29.8009 6.10296 29.7191 6.10296 29.64 6.11999C29.6422 6.17859 29.6659 6.23433 29.7064 6.27671C29.7469 6.31908 29.8016 6.34515 29.86 6.34999L29.87 6.30999ZM12.87 9.23999C12.87 9.70999 12.94 10.18 12.98 10.65L13.04 11.3C13.04 11.44 13.12 11.48 13.25 11.44L13.5 11.4L16.6 10.25L17.66 9.84999C17.7425 9.83081 17.8144 9.78067 17.8609 9.70995C17.9075 9.63922 17.925 9.55331 17.91 9.46999C17.84 8.98999 17.78 8.46999 17.71 8.01999C17.7106 7.98871 17.7034 7.95778 17.6891 7.92994C17.6748 7.90209 17.6539 7.87821 17.6282 7.8604C17.6025 7.84259 17.5727 7.83141 17.5417 7.82785C17.5106 7.82429 17.4791 7.82846 17.45 7.83999L17.18 7.89999L13.91 8.70999L13.17 8.88999C13.0878 8.90237 13.0134 8.94528 12.9615 9.01016C12.9096 9.07504 12.884 9.15712 12.89 9.23999H12.87ZM16.35 7.57999L17.35 7.31999C17.4377 7.31646 17.5216 7.28265 17.5872 7.22432C17.6528 7.16598 17.6962 7.08671 17.71 6.99999C17.7002 6.89021 17.7002 6.77978 17.71 6.66999C17.71 6.37999 17.78 6.08999 17.82 5.79999C17.82 5.65999 17.82 5.59999 17.64 5.59999H17.54L16.96 5.68999L15.87 5.84999L14.37 6.06999L13.51 6.20999C13.4309 6.21448 13.3561 6.24725 13.2992 6.30233C13.2423 6.3574 13.2071 6.43111 13.2 6.50999C13.11 7.02999 13.01 7.50999 12.92 8.06999C12.92 8.18999 12.92 8.29999 12.86 8.45999H13.02L16.35 7.57999ZM28.35 15.58C28.3912 15.5211 28.4248 15.4573 28.45 15.39C28.445 15.3332 28.4281 15.2781 28.4006 15.2281C28.373 15.1782 28.3354 15.1345 28.29 15.1L27.5 14.38C27.4683 14.347 27.4302 14.3208 27.3881 14.3029C27.346 14.285 27.3008 14.2757 27.255 14.2757C27.2093 14.2757 27.164 14.285 27.1219 14.3029C27.0798 14.3208 27.0417 14.347 27.01 14.38C26.39 14.91 25.79 15.45 25.18 15.98L23.5 17.42C23.3 17.58 23.29 17.73 23.5 17.9L25.03 19.27C25.0591 19.3056 25.0957 19.3342 25.1372 19.3539C25.1787 19.3736 25.2241 19.3838 25.27 19.3838C25.3159 19.3838 25.3613 19.3736 25.4028 19.3539C25.4443 19.3342 25.4809 19.3056 25.51 19.27L26.36 18.19L28.35 15.58ZM15.4 33.75L16.93 34.75L18.86 36L19.04 36.09C19.0999 36.0882 19.1583 36.0706 19.2092 36.039C19.2602 36.0074 19.3018 35.9629 19.33 35.91C19.94 34.98 20.56 34.05 21.17 33.11L21.56 32.52C21.5982 32.4735 21.6191 32.4152 21.6191 32.355C21.6191 32.2948 21.5982 32.2365 21.56 32.19C21.5145 32.1446 21.4642 32.1044 21.41 32.07L20.17 31.26L18.26 30C18.2244 29.9684 18.1823 29.9452 18.1366 29.9319C18.091 29.9187 18.0429 29.9158 17.996 29.9235C17.9491 29.9311 17.9044 29.9492 17.8653 29.9762C17.8262 30.0033 17.7937 30.0388 17.77 30.08L16.27 32.02C15.94 32.44 15.61 32.86 15.27 33.29C15.2285 33.3329 15.2052 33.3903 15.2052 33.45C15.2052 33.5097 15.2285 33.5671 15.27 33.61C15.2995 33.6678 15.3445 33.7163 15.4 33.75ZM22.19 31.53L22.34 31.28C23.09 30.04 23.83 28.8 24.58 27.57C24.6105 27.5316 24.6321 27.4869 24.6431 27.4391C24.6542 27.3914 24.6544 27.3417 24.6439 27.2938C24.6334 27.246 24.6123 27.201 24.5822 27.1623C24.5521 27.1236 24.5138 27.092 24.47 27.07L21.91 25.38C21.8416 25.3367 21.7676 25.3031 21.69 25.28C21.6305 25.2842 21.5727 25.3016 21.5207 25.331C21.4688 25.3604 21.4242 25.4011 21.39 25.45L20.15 27.06C19.61 27.75 19.07 28.45 18.52 29.14C18.4865 29.1885 18.4685 29.246 18.4685 29.305C18.4685 29.364 18.4865 29.4215 18.52 29.47C18.5573 29.5286 18.609 29.5768 18.67 29.61L20.86 31.05L21.73 31.63C21.7662 31.6554 21.8073 31.6731 21.8506 31.6818C21.894 31.6906 21.9387 31.6902 21.9819 31.6808C22.0252 31.6714 22.066 31.6532 22.1018 31.6272C22.1376 31.6013 22.1676 31.5682 22.19 31.53ZM10.5 29.22L10.57 29.31C10.5916 29.3353 10.6184 29.3556 10.6486 29.3696C10.6789 29.3835 10.7117 29.3907 10.745 29.3907C10.7783 29.3907 10.8112 29.3835 10.8414 29.3696C10.8716 29.3556 10.8984 29.3353 10.92 29.31L12.5 27.56C12.88 27.14 13.25 26.71 13.64 26.29C13.6707 26.2584 13.6946 26.2207 13.7101 26.1794C13.7256 26.1381 13.7324 26.094 13.73 26.05C13.7346 26.0027 13.7289 25.955 13.7134 25.9102C13.6979 25.8653 13.6728 25.8243 13.64 25.79L13.28 25.32L11.41 22.89C11.3913 22.8589 11.365 22.8332 11.3334 22.8154C11.3019 22.7975 11.2662 22.7882 11.23 22.7882C11.1938 22.7882 11.1581 22.7975 11.1266 22.8154C11.0951 22.8332 11.0687 22.8589 11.05 22.89L9.40001 24.46L8.24001 25.57C8.20213 25.6019 8.17169 25.6417 8.1508 25.6866C8.12992 25.7315 8.1191 25.7805 8.1191 25.83C8.1191 25.8795 8.12992 25.9285 8.1508 25.9734C8.17169 26.0183 8.20213 26.0581 8.24001 26.09L10.5 29.22ZM8.99001 18.84L8.85001 19L6.08001 21.28C6.00521 21.3343 5.95278 21.414 5.93253 21.5042C5.91228 21.5944 5.9256 21.6889 5.97001 21.77L7.59001 25.09C7.60554 25.1343 7.63371 25.173 7.67103 25.2015C7.70835 25.2299 7.7532 25.2468 7.80001 25.25L8.11001 25L9.50001 23.63L10.68 22.49C10.73 22.4559 10.7727 22.4123 10.8058 22.3616C10.8388 22.311 10.8616 22.2543 10.8727 22.1949C10.8839 22.1354 10.8832 22.0744 10.8707 22.0152C10.8582 21.956 10.8342 21.8999 10.8 21.85L9.84001 20L9.27001 18.9C9.19001 18.75 9.12001 18.74 8.99001 18.84ZM22.82 32.24L22.95 32.3L26.09 33.67C26.1306 33.6932 26.1758 33.7072 26.2224 33.711C26.2689 33.7149 26.3158 33.7085 26.3597 33.6923C26.4035 33.6761 26.4433 33.6505 26.4762 33.6172C26.509 33.584 26.5343 33.544 26.55 33.5L27.62 31.17C27.9 30.57 28.18 29.97 28.45 29.36C28.4592 29.3037 28.4592 29.2463 28.45 29.19C28.4497 29.1255 28.4279 29.063 28.388 29.0123C28.3482 28.9615 28.2926 28.9256 28.23 28.91L25.61 27.7L25.43 27.64C25.3544 27.6404 25.2804 27.6622 25.2167 27.7029C25.153 27.7436 25.1021 27.8016 25.07 27.87L23.07 31.13C22.94 31.36 22.81 31.59 22.66 31.81C22.6319 31.8463 22.6135 31.8892 22.6065 31.9346C22.5996 31.98 22.6044 32.0264 22.6204 32.0695C22.6364 32.1125 22.6632 32.1508 22.6981 32.1806C22.733 32.2105 22.775 32.2309 22.82 32.24ZM13.04 31.71L14.42 33C14.4795 33.0483 14.5473 33.0856 14.62 33.11C14.6665 33.1109 14.7123 33.0992 14.7528 33.0764C14.7932 33.0535 14.8268 33.0202 14.85 32.98L17.31 29.78C17.3477 29.749 17.378 29.7101 17.3989 29.666C17.4197 29.6219 17.4305 29.5738 17.4305 29.525C17.4305 29.4762 17.4197 29.4281 17.3989 29.384C17.378 29.3399 17.3477 29.301 17.31 29.27L16.12 28.2L14.5 26.67C14.4747 26.6387 14.4427 26.6134 14.4064 26.5961C14.37 26.5787 14.3303 26.5697 14.29 26.5697C14.2497 26.5697 14.21 26.5787 14.1736 26.5961C14.1373 26.6134 14.1053 26.6387 14.08 26.67L13.37 27.47L11.37 29.66C11.3326 29.689 11.3024 29.7261 11.2816 29.7686C11.2608 29.811 11.2499 29.8577 11.2499 29.905C11.2499 29.9523 11.2608 29.9989 11.2816 30.0414C11.3024 30.0839 11.3326 30.121 11.37 30.15L13.04 31.71ZM34.27 18.34L33.27 18.03H33.19C33.1236 18.0289 33.0591 18.0515 33.0078 18.0936C32.9565 18.1357 32.9219 18.1947 32.91 18.26C32.69 18.96 32.47 19.67 32.26 20.38C32.05 21.09 31.79 21.93 31.56 22.71C31.5368 22.7531 31.5246 22.8013 31.5243 22.8503C31.524 22.8992 31.5357 22.9475 31.5584 22.9909C31.5811 23.0343 31.6141 23.0715 31.6544 23.0992C31.6948 23.127 31.7414 23.1444 31.79 23.15L33.51 23.66C33.72 23.72 33.85 23.66 33.88 23.41C33.98 22.67 34.07 21.93 34.17 21.19C34.27 20.45 34.38 19.56 34.48 18.75C34.4965 18.668 34.4847 18.5828 34.4466 18.5083C34.4085 18.4339 34.3462 18.3745 34.27 18.34ZM30.41 34.81C30.71 34.88 30.81 34.81 30.91 34.53C31.14 33.84 31.37 33.15 31.61 32.47L32.3 30.47C32.37 30.24 32.3 30.12 32.1 30.06L29.5 29.33H29.37H29.23C29.1 29.33 29.05 29.49 28.99 29.61C28.76 30.11 28.53 30.61 28.29 31.13L27.11 33.69C27.02 33.88 27.11 33.99 27.28 34.03L30.41 34.81ZM33.33 12.43C33.17 12.43 33.07 12.43 32.97 12.66C32.87 12.89 32.65 13.37 32.48 13.72C32.1 14.55 31.72 15.37 31.33 16.2C31.3099 16.2378 31.2978 16.2793 31.2945 16.3219C31.2913 16.3646 31.2968 16.4074 31.3109 16.4478C31.325 16.4882 31.3473 16.5252 31.3764 16.5566C31.4055 16.5879 31.4408 16.6129 31.48 16.63L32.39 17.07H32.49C32.5158 17.0727 32.5418 17.0702 32.5666 17.0625C32.5913 17.0548 32.6142 17.0422 32.6339 17.0253C32.6535 17.0085 32.6695 16.9878 32.6809 16.9645C32.6923 16.9412 32.6988 16.9159 32.7 16.89L33.09 15.16C33.26 14.39 33.44 13.61 33.61 12.84C33.6203 12.7494 33.5976 12.6582 33.5462 12.5829C33.4948 12.5077 33.4181 12.4534 33.33 12.43ZM33.33 29.66L33.98 29.72L35.66 29.82C35.7182 29.8362 35.7793 29.8383 35.8385 29.8261C35.8976 29.8139 35.953 29.7878 36 29.75C36.0533 29.6732 36.0844 29.5833 36.09 29.49C36.09 29.13 36.16 28.77 36.2 28.41C36.25 27.88 36.3 27.35 36.36 26.82L36.56 25C36.565 24.9535 36.565 24.9065 36.56 24.86C36.5561 24.7983 36.5311 24.7398 36.4893 24.6943C36.4474 24.6488 36.3912 24.619 36.33 24.61L35.4 24.51L34.56 24.42C34.4956 24.3954 34.4244 24.3954 34.36 24.42C34.2753 24.4915 34.2187 24.5907 34.2 24.7C33.89 26.08 33.57 27.46 33.2 28.84C33.2 29.01 33.12 29.17 33.09 29.34C33.06 29.51 33.18 29.64 33.35 29.66H33.33ZM32.55 29.38C32.5869 29.3143 32.6139 29.2436 32.63 29.17C32.97 27.72 33.3 26.26 33.63 24.8C33.63 24.71 33.63 24.61 33.69 24.54C33.6952 24.467 33.6752 24.3944 33.6333 24.3343C33.5915 24.2743 33.5303 24.2304 33.46 24.21L31.58 23.66C31.5159 23.6394 31.4471 23.639 31.3828 23.6586C31.3184 23.6783 31.2616 23.7171 31.22 23.77C31.184 23.8268 31.1539 23.8871 31.13 23.95C30.66 25.2 30.19 26.44 29.71 27.69L29.44 28.41C29.418 28.4477 29.4058 28.4904 29.4046 28.534C29.4034 28.5777 29.4132 28.6209 29.4331 28.6598C29.4531 28.6987 29.4825 28.7319 29.5186 28.7564C29.5548 28.7809 29.5965 28.7959 29.64 28.8L32.22 29.49C32.2825 29.5113 32.3501 29.5121 32.413 29.4923C32.476 29.4725 32.531 29.4332 32.57 29.38H32.55ZM13.5 15.79L12.5 16.43L10.5 17.73L9.78001 18.21C9.70722 18.2538 9.65412 18.324 9.63177 18.4059C9.60942 18.4879 9.61953 18.5753 9.66001 18.65L10.5 20.1C10.76 20.6 11.01 21.1 11.27 21.59C11.36 21.76 11.48 21.78 11.63 21.66L12.5 21L15.17 18.82C15.2179 18.7789 15.2568 18.7284 15.2843 18.6716C15.3118 18.6149 15.3274 18.553 15.33 18.49C15.3077 18.4217 15.281 18.3549 15.25 18.29L13.97 15.94C13.9786 15.8814 13.9661 15.8216 13.9347 15.7713C13.9033 15.721 13.8551 15.6835 13.7987 15.6655C13.7422 15.6475 13.6812 15.6501 13.6265 15.6729C13.5718 15.6957 13.527 15.7372 13.5 15.79ZM31.23 8.29999H30.92H30.11C30.0736 8.2976 30.0372 8.30576 30.0053 8.32349C29.9734 8.34123 29.9472 8.36779 29.93 8.39999C29.9772 8.47622 30.0465 8.53622 30.1287 8.57196C30.2109 8.6077 30.3021 8.61748 30.39 8.59999L31.07 8.49999L31.35 8.44999C31.3 8.30999 31.3 8.30999 31.23 8.29999ZM29.87 7.50999C29.8313 7.49549 29.7886 7.49562 29.7499 7.51035C29.7112 7.52507 29.6793 7.55339 29.66 7.58999C29.69 7.63928 29.7307 7.6811 29.7792 7.71228C29.8278 7.74347 29.8827 7.76321 29.94 7.76999H30.35H31.07C31.0794 7.77444 31.0896 7.77675 31.1 7.77675C31.1104 7.77675 31.1206 7.77444 31.13 7.76999C31.13 7.76999 31.13 7.76999 31.07 7.76999L29.87 7.50999ZM31.06 9.80999C30.96 9.80999 30.94 9.91999 31.06 9.99999C31.1099 10.0665 31.1837 10.1111 31.2658 10.1241C31.348 10.1372 31.4319 10.1178 31.5 10.07L32.11 9.62999L32.22 9.56999L32.09 9.42999L31.06 9.80999ZM38.28 9.23999L37.42 9.05999C37.7649 9.23859 38.1267 9.38262 38.5 9.48999C38.4829 9.43525 38.4544 9.38471 38.4165 9.34165C38.3786 9.29859 38.3321 9.26396 38.28 9.23999ZM32.56 9.93999L31.75 10.52C31.75 10.52 31.7 10.57 31.7 10.6C31.7 10.63 31.77 10.78 31.89 10.83C32.01 10.88 32.06 10.83 32.13 10.78L32.46 10.36C32.54 10.27 32.61 10.17 32.69 10.07L32.56 9.93999ZM28.23 9.60999L25.36 10.4C25.19 10.4 25.1 10.59 25.22 10.76C25.34 10.93 25.51 11.21 25.65 11.43C25.6713 11.4793 25.7034 11.5233 25.7439 11.5586C25.7844 11.5939 25.8324 11.6197 25.8841 11.6341C25.9359 11.6485 25.9903 11.6511 26.0432 11.6417C26.0961 11.6324 26.1463 11.6113 26.19 11.58L27.8 10.78L29.8 9.77999H29.91C29.945 9.75443 29.9708 9.71817 29.9834 9.67669C29.996 9.6352 29.9949 9.59074 29.98 9.54999C29.9471 9.47357 29.8928 9.40833 29.8235 9.36218C29.7543 9.31603 29.6732 9.29096 29.59 9.28999H29.44L28.23 9.60999ZM29.1 8.29999L28.35 8.36999L27.59 8.43999L26.09 8.59999L24.91 8.71999H24.6C24.5632 8.71905 24.5268 8.72781 24.4944 8.7454C24.462 8.76298 24.4348 8.78878 24.4156 8.82019C24.3963 8.8516 24.3857 8.88752 24.3847 8.92434C24.3837 8.96117 24.3925 8.99761 24.41 9.02999L24.68 9.67999C24.6975 9.72666 24.7242 9.76932 24.7586 9.8054C24.7929 9.84149 24.8342 9.87026 24.88 9.88999C24.9967 9.92962 25.1233 9.92962 25.24 9.88999L27.5 9.28999L29.35 8.77999C29.51 8.77999 29.55 8.63999 29.47 8.48999C29.4381 8.42183 29.3844 8.3662 29.3174 8.33182C29.2505 8.29743 29.174 8.28624 29.1 8.29999ZM18.9 13L18.73 13.07L15.85 14.55L14.58 15.21C14.5344 15.2253 14.4932 15.2514 14.4598 15.2859C14.4265 15.3205 14.4019 15.3626 14.3881 15.4087C14.3744 15.4548 14.372 15.5035 14.381 15.5507C14.39 15.5979 14.4103 15.6422 14.44 15.68C14.61 16 14.79 16.32 14.97 16.68C15.15 17.04 15.45 17.57 15.7 18.01C15.712 18.0419 15.7308 18.071 15.7549 18.0951C15.779 18.1192 15.8081 18.138 15.84 18.15C15.8915 18.1677 15.947 18.1705 16.0001 18.1581C16.0531 18.1457 16.1016 18.1187 16.14 18.08L18.5 16.37L20.08 15.26C20.1241 15.2368 20.1625 15.2043 20.1926 15.1647C20.2227 15.1251 20.2437 15.0793 20.2542 15.0307C20.2647 14.9821 20.2644 14.9317 20.2533 14.8832C20.2422 14.8347 20.2206 14.7892 20.19 14.75C20.1142 14.6369 20.0441 14.5201 19.98 14.4L19.25 13.15C19.2115 13.0948 19.1583 13.0514 19.0965 13.0249C19.0346 12.9984 18.9665 12.9898 18.9 13ZM21.74 11.8L19.89 12.54C19.68 12.62 19.62 12.77 19.73 12.95L20.64 14.5C20.6661 14.5516 20.7062 14.595 20.7557 14.625C20.8052 14.655 20.8621 14.6706 20.92 14.67C20.9983 14.6444 21.0751 14.6143 21.15 14.58L25.15 12.21C25.1901 12.1937 25.2257 12.1681 25.2538 12.1352C25.282 12.1023 25.3017 12.0631 25.3115 12.0209C25.3214 11.9788 25.3209 11.9349 25.3102 11.893C25.2995 11.851 25.2788 11.8123 25.25 11.78L24.72 11C24.6978 10.9527 24.6661 10.9105 24.6269 10.876C24.5877 10.8415 24.5418 10.8155 24.492 10.7995C24.4423 10.7836 24.3898 10.7781 24.3379 10.7833C24.2859 10.7885 24.2356 10.8044 24.19 10.83L21.74 11.8ZM28.74 7.39999L27.22 7.29999L25.67 7.22999H24.67H24.24C24.2042 7.22306 24.1673 7.22556 24.1327 7.23725C24.0982 7.24894 24.0673 7.26941 24.0431 7.29665C24.0189 7.32389 24.0022 7.35696 23.9946 7.39261C23.9871 7.42827 23.9889 7.46527 24 7.49999C24 7.68999 24.08 7.88999 24.11 8.08999C24.1186 8.14961 24.1469 8.20463 24.1904 8.24631C24.2339 8.28798 24.2901 8.31392 24.35 8.31999H24.56L25.77 8.20999L26.45 8.13999L27.95 7.96999L28.95 7.86999C28.9829 7.87086 29.0152 7.86159 29.0426 7.84344C29.07 7.82529 29.0911 7.79915 29.1032 7.76855C29.1152 7.73796 29.1175 7.70441 29.1098 7.67246C29.102 7.64052 29.0847 7.61172 29.06 7.58999C29.0271 7.53129 28.9811 7.48092 28.9256 7.44278C28.8701 7.40464 28.8066 7.37974 28.74 7.36999V7.39999ZM32.25 4.69999L32.91 5.61999C32.78 5.36999 32.67 5.11999 32.53 4.87999C32.5068 4.82289 32.4684 4.77319 32.4191 4.7362C32.3698 4.69921 32.3113 4.67632 32.25 4.66999V4.69999ZM19.5 0.689994L20.84 0.779994C21.11 0.779994 21.38 0.779994 21.65 0.839994C21.7817 0.869998 21.9184 0.869998 22.05 0.839994C22.19 0.839994 22.32 0.759994 22.45 0.719994L22.95 0.559994L22.05 0.449994L20.89 0.249994C20.7142 0.2251 20.5358 0.2251 20.36 0.249994C19.96 0.349994 19.56 0.479994 19.16 0.599994H19.06L19.5 0.689994ZM15.6 1.90999C15.7479 1.88579 15.8902 1.83497 16.02 1.75999L16.62 1.41999L17.04 1.16999C16.47 1.28999 15.91 1.41999 15.34 1.52999C14.9866 1.59573 14.6479 1.72444 14.34 1.90999L13.5 2.36999L13.4 2.42999C13.623 2.39877 13.8435 2.35199 14.06 2.28999L15.6 1.90999ZM16.6 1.81999H16.7H18.33C18.89 1.81999 19.44 1.81999 19.99 1.81999C20.0762 1.82476 20.1623 1.80756 20.24 1.76999L21.24 1.15999H20.61L19.77 1.10999L18.37 0.999994C18.1942 0.992937 18.0202 1.03818 17.87 1.12999L16.75 1.76999L16.6 1.81999ZM27.26 1.65999C27.3502 1.69107 27.4446 1.70794 27.54 1.70999C27.72 1.70999 27.9 1.70999 28.07 1.64999H28.21L28.06 1.55999L26.22 0.579994C26.0357 0.472738 25.822 0.427188 25.61 0.449994L24.61 0.529994H24.68L27.26 1.65999ZM23.81 0.259994C24.05 0.259994 24.3 0.259994 24.54 0.209994C24.31 0.209994 24.08 0.129994 23.84 0.109994C23.5751 0.0680223 23.308 0.0413116 23.04 0.0299937C22.7936 0.0150672 22.5464 0.0150672 22.3 0.0299937C22.3 0.0299937 22.24 0.0299937 22.2 0.0299937L23.13 0.139994C23.3538 0.194844 23.581 0.234931 23.81 0.259994ZM39.73 7.15999C39.8884 7.34777 40.0865 7.49805 40.31 7.59999C40.01 7.27999 39.72 6.95999 39.42 6.59999C39.3835 6.56436 39.3392 6.53769 39.2906 6.52208C39.242 6.50646 39.1905 6.50232 39.14 6.50999L39.2 6.57999C39.4 6.79999 39.58 6.99999 39.73 7.15999ZM28.84 1.52999L29.01 1.57999L29.78 1.64999L29.73 1.58999L28.3 0.699994C28.1899 0.636565 28.0668 0.598954 27.94 0.589994C27.7647 0.559578 27.5877 0.539543 27.41 0.529994L26.86 0.479994C26.8625 0.493434 26.8684 0.506006 26.8772 0.51651C26.8859 0.527014 26.8972 0.535099 26.91 0.539994L28.84 1.52999ZM4.14001 13.21C4.21567 13.1313 4.27065 13.0351 4.30001 12.93C4.44001 12.44 4.56001 11.93 4.68001 11.46C4.80001 10.99 4.87001 10.73 4.97001 10.33L4.90001 10.38C4.40001 10.93 3.90001 11.47 3.38001 12.02C3.22145 12.1869 3.1049 12.3891 3.04001 12.61C2.83001 13.41 2.61001 14.2 2.39001 14.99C2.38249 15.0431 2.38249 15.0969 2.39001 15.15C2.46894 15.0753 2.54246 14.9951 2.61001 14.91C3.10001 14.35 3.63001 13.78 4.14001 13.21ZM10.82 4.53999L13.94 3.63999C14.0234 3.61645 14.0992 3.57165 14.16 3.50999L14.7 2.99999L15.33 2.34999H15.18L12.63 2.99999C12.4463 3.03292 12.278 3.12407 12.15 3.25999L11.81 3.59999C11.56 3.82999 11.32 4.06999 11.08 4.30999L10.82 4.53999ZM5.89001 9.11999L6.04001 8.99999L8.50001 7.51999C8.58019 7.47165 8.64583 7.40255 8.69001 7.31999L9.69001 5.54999C9.69728 5.51369 9.69728 5.4763 9.69001 5.43999H9.63001C8.86001 5.88999 8.09001 6.33999 7.33001 6.79999C7.21482 6.8771 7.11899 6.97977 7.05001 7.09999C6.76001 7.56999 6.48001 8.09999 6.20001 8.53999L5.89001 9.06999V9.11999ZM9.73001 4.99999C9.86376 4.93181 9.99096 4.85147 10.11 4.75999C10.49 4.40999 10.85 4.03999 11.22 3.67999H11.15L9.59001 4.56999C9.48707 4.6309 9.38999 4.7012 9.30001 4.77999L8.18001 5.85999V5.91999C8.19175 5.92817 8.2057 5.93255 8.22001 5.93255C8.23431 5.93255 8.24827 5.92817 8.26001 5.91999L9.73001 4.99999ZM30.3 1.54999C30.6529 1.73875 31.0348 1.86719 31.43 1.92999L31.38 1.85999L30.61 1.25999C30.5542 1.20637 30.4852 1.16843 30.41 1.14999L29.21 0.829994L29.3 0.899994C29.63 1.12999 29.98 1.31999 30.3 1.54999ZM36.89 6.42999C36.9255 6.45839 36.9696 6.47387 37.015 6.47387C37.0604 6.47387 37.1045 6.45839 37.14 6.42999L37.45 6.32999L38.2 6.05999C38.1875 6.02475 38.1707 5.99117 38.15 5.95999L37.33 5.25999C37.2868 5.2559 37.2432 5.2559 37.2 5.25999L36.5 6.08999C36.637 6.19511 36.7672 6.30866 36.89 6.42999ZM36.12 5.77999L36.81 4.99999C36.4954 4.68501 36.1303 4.42477 35.73 4.22999C35.73 4.35999 35.73 4.47999 35.73 4.60999L35.64 5.37999C35.6247 5.42198 35.6247 5.46801 35.64 5.50999L36.12 5.77999ZM36.23 4.08999L36.99 4.61999C36.99 4.61999 37.06 4.68999 37.1 4.61999C36.6485 4.24743 36.1668 3.91295 35.66 3.61999L35.84 3.78999L36.23 4.08999ZM38.56 5.92999C38.5884 5.96281 38.6238 5.98884 38.6636 6.00614C38.7034 6.02345 38.7466 6.0316 38.79 6.02999L38.01 5.34999L37.58 4.99999C37.58 4.99999 37.51 4.90999 37.44 4.99999L38 5.48999L38.56 5.92999ZM1.71001 16C1.77503 15.8738 1.83181 15.7435 1.88001 15.61L2.30001 14.1C2.30001 14.1 2.30001 14.1 2.30001 14.05C2.30001 14 2.30001 14.05 2.30001 13.99C1.85098 14.8475 1.53407 15.7678 1.36001 16.72C1.3826 16.69 1.39954 16.6561 1.41001 16.62L1.71001 16ZM38.37 6.51999L38.23 6.56999L37.38 6.87999C37.49 7.00999 37.58 7.11999 37.68 7.21999C37.737 7.25778 37.8021 7.28175 37.87 7.28999C38.11 7.28999 38.36 7.28999 38.61 7.28999H39.24H39.5L39.44 7.19999L38.85 6.54999C38.8232 6.51252 38.7884 6.48149 38.7481 6.45915C38.7079 6.43681 38.6631 6.42373 38.6171 6.42086C38.5712 6.41798 38.5251 6.42539 38.4824 6.44254C38.4396 6.45969 38.4012 6.48615 38.37 6.51999ZM32.5 2.22999C32.69 2.30999 32.88 2.36999 33.07 2.43999L33.22 2.48999C33.0291 2.21115 32.7566 1.9981 32.44 1.87999C32.4069 1.88578 32.3731 1.88578 32.34 1.87999L31.59 1.57999L32.18 2.01999C32.2783 2.10196 32.3857 2.17241 32.5 2.22999ZM32.64 2.64999L33.64 4.36999C33.696 4.45887 33.7807 4.52592 33.88 4.55999L34.13 4.63999C34.1277 4.60336 34.1277 4.56663 34.13 4.52999C34.01 4.09999 33.89 3.67999 33.79 3.24999C33.7636 3.18917 33.7238 3.13509 33.6736 3.0918C33.6234 3.04851 33.5641 3.01712 33.5 2.99999L32.78 2.71999C32.7614 2.6983 32.7385 2.68082 32.7126 2.66875C32.6867 2.65667 32.6586 2.65028 32.63 2.64999H32.64ZM35.5 6.56999H35.56L35.83 6.21999C35.8379 6.20631 35.8421 6.19079 35.8421 6.17499C35.8421 6.1592 35.8379 6.14368 35.83 6.12999C35.8139 6.07775 35.7824 6.03162 35.7395 5.9977C35.6967 5.96377 35.6445 5.94365 35.59 5.93999C35.59 5.93999 35.5 5.93999 35.5 5.93999C35.4409 6.1004 35.3908 6.26399 35.35 6.42999C35.3 6.48999 35.38 6.56999 35.5 6.56999ZM34.24 2.99999L34.47 3.10999L35.08 3.42999C35.0722 3.37298 35.0497 3.31899 35.0146 3.27338C34.9795 3.22778 34.9331 3.19213 34.88 3.16999L34.13 2.76999L33.76 2.56999C33.871 2.7601 34.0389 2.91052 34.24 2.99999ZM34.33 3.39999H34.21C34.2142 3.43988 34.2142 3.48011 34.21 3.51999L34.59 4.85999C34.602 4.90374 34.6234 4.94432 34.6528 4.97887C34.6822 5.01343 34.7188 5.04112 34.76 5.05999L35.13 5.23999C35.13 4.85999 35.22 4.48999 35.28 4.12999C35.2866 4.08757 35.2807 4.04413 35.2629 4.00503C35.2452 3.96594 35.2163 3.9329 35.18 3.90999C35.1405 3.87762 35.0967 3.85071 35.05 3.82999L34.33 3.39999ZM5.10001 9.66999C5.24843 9.47346 5.38213 9.26623 5.50001 9.04999L6.11001 8.04999L6.04001 8.11999C5.80001 8.35999 5.57001 8.60999 5.34001 8.85999C5.08784 9.11063 4.86934 9.39299 4.69001 9.69999C4.47001 10.09 4.23001 10.46 4.01001 10.84L3.95001 10.96C4.0729 10.8603 4.18668 10.7499 4.29001 10.63C4.55001 10.27 4.84001 9.99999 5.10001 9.66999ZM41.93 35.88L40.73 37C40.6613 37.0721 40.5978 37.1489 40.54 37.23L39.88 38.23L39.57 38.74L39.88 38.45C40.14 38.2 40.39 37.93 40.66 37.69C40.9046 37.4637 41.1167 37.2046 41.29 36.92C41.38 36.75 41.49 36.6 41.59 36.43L42.06 35.68L41.93 35.88ZM36.21 41.51C35.99 41.63 35.77 41.74 35.56 41.87C35.3948 41.9821 35.2378 42.1058 35.09 42.24L34.35 42.86L34.45 42.81L35.77 42.07C35.9874 41.945 36.1977 41.8082 36.4 41.66C36.6 41.51 36.77 41.35 36.96 41.19L37.26 40.94C37.2107 40.9285 37.1593 40.9285 37.11 40.94L36.21 41.51ZM39.95 37.57C39.9175 37.5593 39.8825 37.5593 39.85 37.57C39.13 37.96 38.42 38.35 37.69 38.73C37.4994 38.8227 37.3397 38.9686 37.23 39.15C36.83 39.8 36.4 40.43 35.99 41.08L35.87 41.28L35.97 41.23L38.31 40C38.447 39.9216 38.5635 39.812 38.65 39.68C38.96 39.18 39.28 38.68 39.65 38.18L39.95 37.57ZM26.57 45.11H24.72C24.618 45.1113 24.5169 45.1281 24.42 45.16C24.21 45.24 24.01 45.34 23.81 45.43L23.31 45.65H23.67H24.72L26.37 45.6C26.5136 45.5903 26.6551 45.56 26.79 45.51L27.79 45.13L27.94 45.06C27.8436 45.0503 27.7464 45.0503 27.65 45.06L26.57 45.11ZM30.68 43.11H30.31C29.65 43.11 28.99 43.11 28.31 43.11H26.96C26.8186 43.1083 26.6821 43.1622 26.58 43.26L25.05 44.7C25.0157 44.7329 24.9855 44.7698 24.96 44.81H26.04H27.3H28.67C28.8019 44.8029 28.928 44.7538 29.03 44.67L30.24 43.59L30.68 43.11ZM34.55 42.24H34.42C33.42 42.49 32.42 42.73 31.49 42.99C31.3997 43.0107 31.3167 43.0557 31.25 43.12C30.74 43.55 30.25 44 29.74 44.44L29.66 44.54H29.81L32.67 43.78C32.8246 43.7336 32.9677 43.6553 33.09 43.55L34.09 42.65L34.51 42.28L34.55 42.24ZM45.74 22.13L44.93 19.73C44.93 19.6 44.84 19.47 44.78 19.31L44.72 19.45C44.64 19.72 44.56 19.99 44.46 20.25C44.3921 20.4545 44.3921 20.6755 44.46 20.88C44.74 21.88 45.01 22.88 45.29 23.88C45.2866 23.9333 45.2866 23.9867 45.29 24.04C45.29 23.95 45.29 23.91 45.34 23.87C45.47 23.44 45.59 23.02 45.72 22.6C45.773 22.4488 45.78 22.2852 45.74 22.13ZM45.98 24.4C45.98 24.07 45.98 23.75 45.98 23.4V23.51L45.71 24.44C45.637 24.6556 45.6032 24.8825 45.61 25.11C45.61 25.74 45.61 26.37 45.61 26.99C45.61 27.13 45.61 27.27 45.61 27.41C45.6442 27.3774 45.6685 27.3358 45.68 27.29C45.79 26.87 45.91 26.45 46.02 26.04C46.0726 25.8753 46.0962 25.7028 46.09 25.53L45.98 24.4ZM44.33 30.76C44.1497 31.0356 44.0178 31.34 43.94 31.66C43.8 32.21 43.64 32.76 43.48 33.31V33.52C43.5087 33.4908 43.5324 33.457 43.55 33.42C43.8367 32.94 44.1167 32.46 44.39 31.98C44.448 31.8728 44.4917 31.7585 44.52 31.64C44.67 31.09 44.82 30.53 44.96 29.98C44.96 29.9 44.96 29.82 44.96 29.75C44.9157 29.7822 44.8783 29.823 44.85 29.87C44.68 30.17 44.5 30.47 44.33 30.76ZM45.16 25.4L45.1 25.47L44.25 26.81C44.2071 26.8829 44.1831 26.9654 44.18 27.05C44.18 27.63 44.18 28.2 44.18 28.78V30.11V30.42L44.24 30.35C44.56 29.81 44.89 29.28 45.24 28.74C45.2844 28.6698 45.315 28.5917 45.33 28.51C45.33 28.31 45.33 28.11 45.33 27.91C45.33 27.12 45.33 26.32 45.33 25.53C45.2808 25.4777 45.2234 25.4338 45.16 25.4ZM43.55 31.72L43.47 31.77L41.93 33.2C41.8648 33.277 41.814 33.365 41.78 33.46C41.771 33.5096 41.771 33.5604 41.78 33.61L41.09 35.84C41.03 36.02 40.98 36.2 40.92 36.38L41.47 35.85L42.6 34.77C42.7187 34.66 42.8022 34.5173 42.84 34.36C43.07 33.52 43.31 32.68 43.54 31.84C43.55 31.81 43.5 31.78 43.55 31.72ZM6.64001 36C6.46001 36.4 6.28001 36.78 6.12001 37.17C6.11007 37.192 6.10493 37.2159 6.10493 37.24C6.10493 37.2641 6.11007 37.288 6.12001 37.31C6.15516 37.3636 6.19911 37.411 6.25001 37.45L7.70001 38.83L8.95001 40C9.0469 40.1192 9.17499 40.2092 9.32001 40.26L10.08 39.26L6.64001 36ZM6.25001 38.24L7.01001 38.97L8.65001 40.54L8.96001 40.82L9.10001 40.61L6.10001 37.75C6.08001 38 6.10001 38.08 6.25001 38.22V38.24ZM5.38001 36.95L3.93001 34.87L3.55001 34.35C3.56878 34.5338 3.64189 34.7079 3.76001 34.85C4.32001 35.64 4.87001 36.43 5.43001 37.21C5.50001 37.3 5.57001 37.39 5.65001 37.51C5.66304 37.3786 5.62746 37.2469 5.55001 37.14L5.38001 36.95ZM6.22001 35.51L6.13001 35.4L4.04001 32.47L3.64001 31.91C3.52001 32.34 3.44001 32.73 3.32001 33.1C3.29062 33.188 3.28438 33.282 3.30189 33.3731C3.31941 33.4642 3.36009 33.5492 3.42001 33.62C4.15001 34.62 4.87001 35.67 5.61001 36.69C5.65094 36.7451 5.69789 36.7954 5.75001 36.84C5.92001 36.44 6.08001 36.06 6.25001 35.68C6.26237 35.6485 6.2661 35.6143 6.26083 35.5809C6.25555 35.5475 6.24146 35.5161 6.22001 35.49V35.51ZM0.780008 24.34L0.660008 23.78C0.660008 24.16 0.580008 24.54 0.550008 24.93C0.535007 25.0729 0.535007 25.2171 0.550008 25.36C0.740008 26.29 0.940008 27.23 1.13001 28.16C1.13001 28.16 1.13001 28.24 1.13001 28.28C1.21001 27.91 1.26001 27.55 1.31001 27.18C1.32498 27.0571 1.32498 26.9329 1.31001 26.81C1.14001 26 0.960008 25.16 0.780008 24.34ZM1.78001 28.09L1.60001 27.71V27.8L1.41001 29C1.38176 29.1721 1.41354 29.3486 1.50001 29.5L2.91001 32.68L2.99001 32.82C2.99564 32.7835 2.99564 32.7464 2.99001 32.71C3.07001 32.4 3.13001 32.09 3.22001 31.79C3.25945 31.6739 3.27449 31.5509 3.26416 31.4287C3.25384 31.3066 3.21838 31.1878 3.16001 31.08C2.71001 30.09 2.27001 29.09 1.82001 28.09H1.78001ZM23.5 45C22.36 44.79 21.22 44.59 20.08 44.36C19.65 44.28 19.74 44.3 19.42 44.48C19.1 44.66 18.81 44.82 18.48 45.01C18.5265 45.0164 18.5736 45.0164 18.62 45.01L19.62 45.19L22.06 45.64C22.2763 45.6847 22.5014 45.6566 22.7 45.56C22.89 45.46 23.09 45.38 23.28 45.3L23.87 45.03L23.5 45ZM0.860008 21.72C1.12001 21.18 1.38001 20.64 1.66001 20.11C1.73611 19.9617 1.77393 19.7967 1.77001 19.63C1.77001 19 1.77001 18.38 1.77001 17.75V16.65V16.7L1.03001 18.21C0.910672 18.4256 0.839056 18.6643 0.820008 18.91V20.36V21.62C0.815258 21.6933 0.815258 21.7667 0.820008 21.84L0.860008 21.72ZM19.03 44L17.5 43.41L15.08 42.41C15.0458 42.3876 15.0059 42.3757 14.965 42.3757C14.9242 42.3757 14.8842 42.3876 14.85 42.41L14.58 42.63L13.9 43.2L14.13 43.31L16.19 44.14L17.63 44.71C17.6889 44.7399 17.754 44.7554 17.82 44.7554C17.886 44.7554 17.9511 44.7399 18.01 44.71L19.19 44.03L19.03 44ZM13.66 43.47C13.6022 43.4425 13.539 43.4282 13.475 43.4282C13.411 43.4282 13.3478 43.4425 13.29 43.47C13.29 43.47 13.29 43.47 13.34 43.47L16.5 44.79C16.6364 44.835 16.7836 44.835 16.92 44.79L16.14 44.48L13.66 43.47ZM9.32001 41.09L9.93001 41.48L12.42 43.09C12.5021 43.1426 12.5975 43.1705 12.695 43.1705C12.7925 43.1705 12.8879 43.1426 12.97 43.09L9.50001 40.88L9.32001 41.09ZM13.5 42.92C13.72 42.72 13.95 42.53 14.18 42.34L14.43 42.12L10.43 39.55L9.64001 40.55L9.84001 40.72L10.75 41.31L13.12 42.83C13.1733 42.8659 13.2303 42.8961 13.29 42.92C13.32 42.9435 13.3569 42.9563 13.395 42.9563C13.4331 42.9563 13.4701 42.9435 13.5 42.92ZM36.87 7.11999L36.4 7.39999C36.4132 7.43592 36.4382 7.46633 36.4709 7.48629C36.5036 7.50625 36.542 7.51461 36.58 7.50999L37.24 7.36999C37.2186 7.31006 37.1845 7.25547 37.14 7.20999C37.07 7.13999 36.98 7.06999 36.87 7.11999ZM17.87 2.20999H16.28C16.2073 2.20456 16.1342 2.21418 16.0654 2.23827C15.9966 2.26236 15.9335 2.3004 15.88 2.34999L14.88 3.34999L14.73 3.51999H14.88L16.08 3.42999L17.08 3.35999L18.5 3.30999C18.5965 3.31002 18.6918 3.28953 18.7798 3.24987C18.8677 3.21022 18.9462 3.15231 19.01 3.07999C19.22 2.82999 19.44 2.59999 19.65 2.35999L19.74 2.22999H17.85L17.87 2.20999ZM21.73 1.38999C21.6597 1.42743 21.5928 1.47093 21.53 1.51999L20.8 1.99999L20.95 2.04999L22.79 2.45999L24.72 2.87999C24.7769 2.89676 24.8368 2.90097 24.8955 2.89234C24.9542 2.8837 25.0103 2.86243 25.06 2.82999L25.6 2.46999L25.44 2.39999L23.17 1.67999L22.17 1.37999C22.0975 1.34698 22.0185 1.33074 21.9389 1.33247C21.8592 1.3342 21.781 1.35387 21.71 1.38999H21.73ZM20.18 2.46999C20.13 2.53999 20.07 2.59999 20.01 2.66999L19.43 3.32999L20.43 3.44999L21.43 3.56999L22.69 3.71999C23.02 3.71999 23.35 3.77999 23.69 3.83999C23.8035 3.88016 23.9278 3.878 24.0398 3.8339C24.1519 3.78981 24.2443 3.70675 24.3 3.59999L24.5 3.35999C24.5236 3.32897 24.5437 3.29543 24.56 3.25999C24.49 3.16999 24.4 3.16999 24.31 3.14999L22.98 2.85999L20.64 2.32999C20.5581 2.30485 20.4706 2.30474 20.3886 2.32969C20.3067 2.35463 20.234 2.40349 20.18 2.46999ZM24.03 0.719994C23.8884 0.665256 23.7316 0.665256 23.59 0.719994L22.69 0.999994H22.55L22.72 1.05999L25.89 2.05999C25.9869 2.09514 26.0931 2.09514 26.19 2.05999L26.83 1.82999H26.75L24.03 0.719994ZM28.64 1.99999C28.42 1.99999 28.21 1.99999 27.99 2.06999L28.14 2.17999L30.2 3.65999L30.91 4.16999C30.9643 4.21981 31.0314 4.25365 31.1037 4.26777C31.1761 4.28188 31.2509 4.27573 31.32 4.24999L31.14 4.06999L29.8 2.84999L28.99 2.10999C28.8925 2.02843 28.7666 1.98887 28.64 1.99999ZM27.2 2.22999L26.6 2.42999L26.76 2.52999L28.67 3.59999L30.18 4.43999C30.2414 4.47325 30.3102 4.49067 30.38 4.49067C30.4499 4.49067 30.5186 4.47325 30.58 4.43999L30.4 4.29999L28.73 3.10999L27.6 2.29999C27.5452 2.25438 27.4804 2.22244 27.4109 2.20679C27.3413 2.19114 27.269 2.19224 27.2 2.20999V2.22999ZM14.2 4.29999C14.07 4.59999 13.91 4.88999 13.76 5.17999L13.5 5.77999H13.72L15.79 5.46999L17.79 5.16999C17.8695 5.15963 17.9448 5.12821 18.0081 5.07898C18.0714 5.02975 18.1204 4.96451 18.15 4.88999C18.26 4.62999 18.38 4.35999 18.5 4.09999C18.5 3.99999 18.59 3.89999 18.65 3.76999C18.5907 3.75699 18.5293 3.75699 18.47 3.76999H17.7L16.91 3.81999L15.6 3.90999L14.72 3.99999C14.6196 3.9919 14.5192 4.01429 14.4317 4.06425C14.3443 4.11421 14.274 4.18941 14.23 4.27999L14.2 4.29999ZM4.66001 13.84C4.66001 14.72 4.66001 15.6 4.66001 16.48C4.66001 16.54 4.66001 16.6 4.66001 16.68L4.77001 16.61L6.58001 15.25L7.65001 14.44C7.72705 14.3955 7.79084 14.3313 7.83478 14.254C7.87873 14.1766 7.90125 14.0889 7.90001 14C7.90001 13.58 7.90001 13.16 7.85001 12.74C7.80001 12.32 7.85001 12.03 7.85001 11.67C7.85001 11.53 7.85001 11.38 7.85001 11.2L7.67001 11.31L6.67001 11.94L4.88001 13.13C4.8036 13.1737 4.74132 13.2383 4.70055 13.3163C4.65978 13.3943 4.64224 13.4823 4.65001 13.57C4.65001 13.66 4.66001 13.75 4.66001 13.84ZM5.80001 9.60999C5.70044 9.66721 5.61417 9.74495 5.54693 9.83805C5.47969 9.93115 5.43302 10.0375 5.41001 10.15C5.27001 10.74 5.11001 11.32 4.95001 11.91C4.89001 12.16 4.83001 12.41 4.76001 12.66L4.86001 12.6L7.60001 10.74C7.72265 10.6502 7.80806 10.5186 7.84001 10.37L8.35001 8.13999C8.35001 8.13999 8.35001 8.04999 8.35001 7.98999L8.20001 8.06999L5.80001 9.60999ZM12.41 4.48999L10.59 4.99999C10.5041 5.02114 10.4239 5.06072 10.3548 5.11597C10.2857 5.17123 10.2295 5.24084 10.19 5.31999L9.19001 7.04999C9.19001 7.04999 9.19001 7.11999 9.13001 7.17999L9.32001 7.11999L12.69 5.99999C12.7573 5.97842 12.8195 5.94335 12.8728 5.89693C12.9261 5.85051 12.9694 5.7937 13 5.72999L13.58 4.60999L13.83 4.11999H13.68L12.41 4.48999ZM8.84001 7.99999C8.69001 8.68999 8.53001 9.38999 8.38001 10.08L8.32001 10.34H8.43001L10.66 9.33999L12.02 8.75999C12.1305 8.71948 12.228 8.6497 12.302 8.55812C12.3759 8.46653 12.4237 8.35658 12.44 8.23999C12.5 7.80999 12.59 7.37999 12.67 6.94999C12.67 6.76999 12.73 6.58999 12.77 6.36999L12.5 6.46999L9.19001 7.63999C9.10412 7.66184 9.02596 7.70704 8.96418 7.77058C8.90241 7.83412 8.85943 7.91353 8.84001 7.99999ZM32.17 2.65999C32.1259 2.58353 32.0669 2.51669 31.9964 2.46344C31.926 2.41019 31.8456 2.37162 31.76 2.34999L31.19 2.21999H31.04C31.57 2.85999 32.1 3.49999 32.64 4.12999C32.6931 4.19678 32.7622 4.24918 32.8408 4.28237C32.9194 4.31557 33.0051 4.3285 33.09 4.31999L32.99 4.13999C32.73 3.66999 32.44 3.16999 32.17 2.65999ZM36.17 6.56999C36.0923 6.68091 36.0088 6.78772 35.92 6.88999C36.03 7.02999 36.06 7.03999 36.18 6.97999L36.48 6.80999C36.61 6.72999 36.61 6.63999 36.48 6.53999C36.35 6.43999 36.24 6.43999 36.13 6.56999H36.17ZM35.77 11.34C35.89 11.72 36 12.11 36.12 12.48C36.1418 12.5353 36.177 12.5843 36.2223 12.6227C36.2677 12.6611 36.3219 12.6876 36.38 12.7C36.4053 12.6709 36.4193 12.6336 36.4193 12.595C36.4193 12.5564 36.4053 12.5191 36.38 12.49C36.2 12.12 36.03 11.75 35.85 11.39C35.79 11.38 35.75 11.36 35.73 11.34H35.77ZM37.5 7.80999C37.4 7.80999 37.31 7.80999 37.21 7.86999L36.81 7.99999C36.99 8.13999 37.15 8.07999 37.3 8.08999C37.4565 8.10009 37.6135 8.10009 37.77 8.08999C37.7701 8.01743 37.7419 7.94769 37.6916 7.89546C37.6412 7.84323 37.5725 7.81259 37.5 7.80999ZM37.99 8.50999H37.26C37.59 8.59999 37.93 8.66999 38.26 8.73999C38.2319 8.67669 38.1874 8.62202 38.1312 8.5816C38.075 8.54118 38.009 8.51646 37.94 8.50999H37.99ZM29.99 1.99999H29.5C29.5325 2.06979 29.5804 2.13133 29.64 2.17999L30.64 3.11999L31.75 4.11999C31.866 4.22036 32.017 4.2707 32.17 4.25999L32.06 4.11999C31.6 3.56999 31.13 3.01999 30.68 2.44999C30.6175 2.31877 30.52 2.20733 30.3983 2.12794C30.2766 2.04854 30.1353 2.00427 29.99 1.99999ZM35.5 13.17C35.34 13.17 35.26 13.17 35.25 13.35C35.25 13.71 35.25 14.06 35.25 14.41L35.19 17.6C35.1845 17.6489 35.189 17.6984 35.2034 17.7454C35.2177 17.7925 35.2416 17.8361 35.2734 17.8736C35.3053 17.9111 35.3445 17.9416 35.3886 17.9634C35.4328 17.9851 35.4809 17.9976 35.53 18L36.24 18.1C36.42 18.1 36.51 18.04 36.48 17.86C36.39 17.23 36.29 16.61 36.2 15.98C36.11 15.35 36.01 14.66 35.91 13.98L35.82 13.42C35.798 13.351 35.7557 13.2902 35.6986 13.2456C35.6415 13.201 35.5723 13.1746 35.5 13.17ZM35.24 11.39C35.24 11.33 35.24 11.28 35.12 11.29C35.1151 11.3164 35.1151 11.3436 35.12 11.37C35.12 11.68 35.18 12 35.22 12.31C35.2297 12.3904 35.2636 12.4659 35.3172 12.5266C35.3707 12.5873 35.4415 12.6303 35.52 12.65C35.5453 12.6209 35.5593 12.5836 35.5593 12.545C35.5593 12.5064 35.5453 12.4691 35.52 12.44C35.42 12.09 35.32 11.74 35.21 11.39H35.24ZM33.06 4.79999C33.22 5.11999 33.35 5.42999 33.53 5.72999C33.5 5.46999 33.5 5.22999 33.38 4.99999C33.3535 4.93794 33.3086 4.8855 33.2514 4.84974C33.1942 4.81398 33.1274 4.79662 33.06 4.79999ZM4.27001 17.69L3.08001 19C2.83001 19.27 2.59001 19.55 2.34001 19.83C2.2835 19.8886 2.24355 19.9611 2.22423 20.0401C2.2049 20.1192 2.2069 20.202 2.23001 20.28C2.32001 20.66 2.40001 21.04 2.48001 21.42C2.66001 22.19 2.83001 22.96 3.00001 23.72C3.00001 23.77 3.00001 23.84 3.09001 23.86L3.15001 23.8L5.09001 21.54C5.15609 21.4687 5.20131 21.3807 5.22071 21.2854C5.24011 21.1902 5.23295 21.0914 5.20001 21C5.04001 20.35 4.88001 19.71 4.73001 19.07L4.36001 17.6L4.27001 17.69ZM34.07 5.09999C34.0416 5.07727 34.0064 5.06489 33.97 5.06489C33.9337 5.06489 33.8984 5.07727 33.87 5.09999L34.08 5.81999C34.1064 5.86887 34.1365 5.91567 34.17 5.95999C34.17 5.75999 34.17 5.55999 34.17 5.35999C34.17 5.15999 34.12 5.15999 34.07 5.09999ZM33.43 11.6C33.3984 11.6679 33.3944 11.7453 33.4186 11.8161C33.4428 11.887 33.4935 11.9457 33.56 11.98C33.69 12.06 33.76 11.98 33.78 11.87C33.8 11.76 33.86 11.28 33.9 10.99C33.9 10.87 33.9 10.87 33.75 10.81C33.64 11.08 33.5 11.34 33.43 11.6ZM4.24001 13.88V13.72C4.15001 13.8 4.06001 13.86 3.99001 13.93L2.36001 15.72C2.23907 15.8427 2.17089 16.0077 2.17001 16.18V19.24V19.4L2.24001 19.31L4.07001 17.24C4.12823 17.1806 4.17412 17.1102 4.20501 17.033C4.23591 16.9558 4.2512 16.8732 4.25001 16.79C4.25001 16.62 4.25001 16.45 4.25001 16.27L4.24001 13.88ZM44.09 26.3L44.19 26.15L44.95 24.95C45.0044 24.8724 45.0399 24.7832 45.0538 24.6894C45.0677 24.5957 45.0595 24.5 45.03 24.41C44.78 23.53 44.55 22.65 44.3 21.77C44.24 21.53 44.17 21.29 44.1 21.05H44.05L43.38 22.05C43.3116 22.1529 43.2864 22.2787 43.31 22.4L43.61 23.87L43.94 25.59C43.98 25.81 44.03 26 44.09 26.3ZM44.38 18.45C43.75 17.45 43.13 16.45 42.51 15.51C42.4826 15.4775 42.4525 15.4474 42.42 15.42L42.2 16.02C42.1752 16.0715 42.1623 16.1279 42.1623 16.185C42.1623 16.2421 42.1752 16.2985 42.2 16.35L42.26 16.47L43.98 19.82C44.0044 19.8763 44.0346 19.9299 44.07 19.98C44.0718 19.9467 44.0718 19.9133 44.07 19.88C44.17 19.58 44.26 19.28 44.37 18.98C44.4107 18.8979 44.4328 18.8078 44.4345 18.7161C44.4362 18.6245 44.4176 18.5336 44.38 18.45ZM43.5 31.2C43.5638 31.1438 43.6147 31.0745 43.6492 30.9969C43.6837 30.9192 43.7011 30.835 43.7 30.75C43.7 30.09 43.7 29.43 43.7 28.75V27.66V27.31C43.23 27.71 42.76 28.1 42.3 28.51C42.2278 28.583 42.182 28.678 42.17 28.78C42.11 29.36 42.07 29.94 42.03 30.52C41.99 31.1 41.94 31.64 41.89 32.2C41.89 32.33 41.89 32.47 41.89 32.63L42.09 32.46L43.5 31.2ZM42.1 27.36C42.1 27.58 42.1 27.81 42.18 28.04H42.24L43.58 26.91C43.6377 26.8607 43.6798 26.7957 43.7011 26.7229C43.7225 26.6501 43.7221 26.5726 43.7 26.5C43.6 26 43.51 25.5 43.41 25C43.26 24.25 43.11 23.5 42.97 22.75C42.97 22.68 42.97 22.61 42.87 22.57L42.72 22.67C42.45 22.88 42.19 23.09 41.91 23.29C41.8366 23.34 41.7789 23.4097 41.7435 23.4911C41.7081 23.5725 41.6965 23.6623 41.71 23.75L41.86 25.21L42.1 27.36ZM41.5 32.8C41.5 32.67 41.5 32.54 41.5 32.42L41.65 30.42C41.65 29.97 41.72 29.52 41.75 29.08C41.7541 29.0167 41.7541 28.9533 41.75 28.89L41.6 29C41.05 29.24 40.51 29.49 39.96 29.72C39.8547 29.757 39.7625 29.8241 39.6949 29.9129C39.6274 30.0018 39.5874 30.1086 39.58 30.22L39.07 33.61C39.07 33.82 39.01 34.03 38.97 34.25H39.04L41.26 33.15C41.3303 33.1221 41.3907 33.074 41.4334 33.0116C41.4762 32.9493 41.4994 32.8756 41.5 32.8ZM42.19 11.19C42.28 11.45 42.35 11.67 42.43 11.89C42.4648 11.9672 42.5121 12.0382 42.57 12.1L43.35 12.98L44.08 13.79C43.94 13.43 43.82 13.06 43.67 12.69C43.6182 12.5843 43.5469 12.4894 43.46 12.41L42.29 11.31L42.19 11.19ZM41.5 9.68999C41.5356 9.78995 41.5791 9.88693 41.63 9.97999C41.7564 10.2671 41.9441 10.5231 42.18 10.73C42.5 11.01 42.8 11.31 43.18 11.62C43.1845 11.5902 43.1845 11.5598 43.18 11.53C43.01 11.22 42.84 10.89 42.66 10.58C42.61 10.4903 42.5419 10.412 42.46 10.35C42.2 10.14 41.94 9.94999 41.68 9.74999L41.5 9.68999ZM40.95 8.76999C40.9924 8.83891 41.0465 8.89984 41.11 8.94999L41.73 9.42999L41.85 9.50999C41.85 9.50999 41.85 9.44999 41.85 9.43999C41.66 9.16999 41.46 8.91999 41.28 8.63999C41.0638 8.41094 40.7965 8.2362 40.5 8.12999C40.4941 8.15295 40.4941 8.17704 40.5 8.19999L40.95 8.76999ZM42.55 12.68C42.55 12.92 42.61 13.15 42.65 13.38C42.6641 13.4637 42.6984 13.5426 42.75 13.61L43.99 15.24L44.54 15.97C44.54 15.68 44.43 15.39 44.39 15.09C44.3633 14.815 44.2434 14.5574 44.05 14.36C43.56 13.83 43.05 13.29 42.6 12.75L42.55 12.68ZM40.08 37C40.1563 36.9616 40.224 36.9082 40.279 36.8429C40.3341 36.7775 40.3752 36.7017 40.4 36.62C40.7 35.62 41 34.67 41.29 33.7V33.57H41.21L39 34.66C38.9403 34.6907 38.8875 34.733 38.8445 34.7846C38.8016 34.8361 38.7694 34.8958 38.75 34.96C38.75 35.01 38.75 35.07 38.7 35.12L37.64 38.12C37.6376 38.16 37.6376 38.2 37.64 38.24H37.72L40.08 37ZM44.62 17.85C44.62 17.56 44.62 17.28 44.62 17C44.6342 16.7924 44.5659 16.5876 44.43 16.43L43.05 14.61C42.91 14.43 42.78 14.25 42.64 14.08C42.64 14.3 42.64 14.51 42.58 14.73C42.5866 14.8248 42.6139 14.9169 42.66 15C42.6874 15.0568 42.7209 15.1105 42.76 15.16C43.29 15.99 43.76 16.83 44.33 17.66L44.58 18.03C44.6 18 44.62 17.93 44.62 17.88V17.85ZM11 39.43L13.61 41.11L14.52 41.7C14.73 41.82 14.8 41.81 14.95 41.64L15.65 40.81L16.4 39.94L16.19 39.78L14.19 38.51L12.41 37.36C12.25 37.26 12.2 37.27 12.08 37.42L10.83 39.05C10.73 39.18 10.74 39.26 10.83 39.36L11 39.43ZM39.61 7.76999H38.3H38.11C38.27 8.08999 38.33 8.13999 38.62 8.21999L38.95 8.30999L40.5 8.69999L39.95 7.94999C39.9137 7.89316 39.8633 7.8467 39.8037 7.81515C39.7442 7.78361 39.6774 7.76805 39.61 7.76999ZM7.09001 35.88L8.87001 37.56L10.02 38.65C10.0864 38.7151 10.1602 38.7722 10.24 38.82C10.2513 38.8328 10.2651 38.843 10.2806 38.85C10.2962 38.857 10.313 38.8606 10.33 38.8606C10.347 38.8606 10.3639 38.857 10.3794 38.85C10.3949 38.843 10.4087 38.8328 10.42 38.82L10.63 38.55L11.72 37.11C11.8 37 11.8 36.94 11.72 36.85L11.66 36.78L11.27 36.42L9.43001 34.65L8.43001 33.65C8.38082 33.6047 8.32722 33.5645 8.27001 33.53C8.23978 33.5539 8.21577 33.5848 8.20001 33.62L7.00001 35.39C6.97423 35.4134 6.95363 35.442 6.93954 35.4738C6.92544 35.5057 6.91816 35.5402 6.91816 35.575C6.91816 35.6098 6.92544 35.6443 6.93954 35.6761C6.95363 35.708 6.97423 35.7366 7.00001 35.76L7.09001 35.88ZM4.01001 31.79L4.75001 32.79L6.33001 35C6.38209 35.0674 6.44258 35.1279 6.51001 35.18L6.63001 35L7.73001 33.34C7.78924 33.2801 7.82247 33.1992 7.82247 33.115C7.82247 33.0307 7.78924 32.9499 7.73001 32.89L5.50001 29.89C5.37001 29.7 5.23001 29.51 5.08001 29.31V29.36L3.90001 31.29C3.87091 31.3383 3.85553 31.3936 3.85553 31.45C3.85553 31.5064 3.87091 31.5617 3.90001 31.61L4.01001 31.79ZM3.42001 30.79C3.44181 30.8618 3.46854 30.9319 3.50001 31C3.52132 30.9887 3.53874 30.9713 3.55001 30.95C3.92001 30.32 4.30001 29.69 4.67001 29.05C4.7016 28.9953 4.71824 28.9332 4.71824 28.87C4.71824 28.8068 4.7016 28.7447 4.67001 28.69L4.60001 28.55L3.01001 25C2.99044 24.9579 2.967 24.9177 2.94001 24.88L2.87001 25C2.54001 25.61 2.22001 26.22 1.87001 26.83C1.83061 26.9039 1.81001 26.9863 1.81001 27.07C1.81001 27.1537 1.83061 27.2361 1.87001 27.31L3.42001 30.79ZM1.88001 20.54L1.79001 20.7C1.50001 21.27 1.22001 21.84 0.930008 22.4C0.824156 22.6102 0.795828 22.851 0.850008 23.08C1.07001 24.08 1.27001 25.08 1.48001 26.08C1.48001 26.22 1.55001 26.36 1.58001 26.53C1.58001 26.44 1.67001 26.39 1.70001 26.34C1.98001 25.8 2.26001 25.25 2.55001 24.72C2.61475 24.6168 2.65789 24.5016 2.6768 24.3813C2.6957 24.261 2.68999 24.138 2.66001 24.02C2.43001 23.1 2.24001 22.16 2.03001 21.23C1.98001 21 1.93001 20.78 1.88001 20.54ZM15.5 42.2L18.17 43.28L19.27 43.72C19.3458 43.7652 19.4355 43.781 19.5221 43.7644C19.6088 43.7478 19.6863 43.7 19.74 43.63C19.88 43.47 20.03 43.32 20.17 43.17L21.17 42.09L21.24 42L21.07 41.93L19.36 41.22L17.05 40.27C16.87 40.2 16.8 40.22 16.67 40.37L15.87 41.27L15.23 42.02C15.32 42.13 15.41 42.16 15.5 42.2ZM27.87 42.69H30.75H30.81C30.9048 42.6884 30.9976 42.6629 31.0799 42.6156C31.1621 42.5684 31.2309 42.5011 31.28 42.42C31.75 41.68 32.28 40.94 32.73 40.2L32.91 39.91H29.26C29.1782 39.9079 29.0971 39.926 29.0238 39.9626C28.9506 39.9992 28.8875 40.0533 28.84 40.12C28.8099 40.1576 28.7831 40.1977 28.76 40.24L27.21 42.5L27.07 42.73H27.27L27.87 42.69ZM34.87 41.69C34.9541 41.6711 35.0332 41.6346 35.1022 41.5829C35.1711 41.5311 35.2283 41.4654 35.27 41.39L36.13 40.05C36.34 39.72 36.55 39.38 36.79 39.05L35.49 39.35L33.72 39.77C33.6323 39.7826 33.5484 39.8142 33.4741 39.8626C33.3999 39.9109 33.337 39.9749 33.29 40.05C32.77 40.83 32.29 41.61 31.74 42.4C31.7102 42.4413 31.6835 42.4848 31.66 42.53H31.85L34.87 41.69ZM22.14 44.36C22.77 44.48 23.41 44.61 24.05 44.72C24.1461 44.7434 24.2467 44.7409 24.3416 44.7128C24.4364 44.6847 24.5222 44.632 24.59 44.56C25.02 44.13 25.46 43.72 25.9 43.3C25.99 43.22 26.06 43.14 26.15 43.05H26.05L24.05 42.66L22.1 42.27C22.0149 42.2458 21.9248 42.2461 21.8398 42.2709C21.7549 42.2956 21.6787 42.3439 21.62 42.41L20.17 43.9C20.17 43.9 20.17 43.96 20.09 44.01L20.38 44.08L22.14 44.36ZM37.14 38.26L38.14 35.33C38.14 35.22 38.22 35.1 38.27 34.96H38.11L36.11 35.36C35.91 35.36 35.72 35.45 35.52 35.48C35.3973 35.4947 35.2816 35.5452 35.1873 35.6253C35.0931 35.7053 35.0245 35.8113 34.99 35.93C34.59 36.93 34.18 37.93 33.78 38.93C33.73 39.06 33.67 39.2 33.61 39.37H33.72L34.24 39.25L36.67 38.69C36.7942 38.694 36.9155 38.6525 37.0113 38.5733C37.107 38.4941 37.1706 38.3827 37.19 38.26H37.14ZM26.66 42.45L28.33 40C28.3658 39.9502 28.396 39.8965 28.42 39.84C28.3803 39.8329 28.3397 39.8329 28.3 39.84L27.3 39.62L24.5 38.94C24.4102 38.9186 24.3159 38.9253 24.2301 38.9593C24.1442 38.9933 24.0709 39.0529 24.02 39.13L22.28 41.59L22.19 41.73C22.208 41.7652 22.2351 41.795 22.2685 41.8161C22.302 41.8372 22.3405 41.8489 22.38 41.85L22.92 41.96L25.84 42.54C26.0083 42.5764 26.1786 42.6031 26.35 42.62C26.4125 42.624 26.4748 42.6101 26.5297 42.58C26.5846 42.5499 26.6298 42.5048 26.66 42.45Z" fill="white"/>
</svg>
